<?xml version="1.0" encoding="UTF-8" standalone="no"?>
<!DOCTYPE svg PUBLIC "-//W3C//DTD SVG 1.1//EN" "http://www.w3.org/Graphics/SVG/1.1/DTD/svg11.dtd">
<svg width="100%" height="100%" viewBox="0 0 100 100" version="1.1" xmlns="http://www.w3.org/2000/svg" xmlns:xlink="http://www.w3.org/1999/xlink" xml:space="preserve" xmlns:serif="http://www.serif.com/" style="fill-rule:evenodd;clip-rule:evenodd;stroke-linejoin:round;stroke-miterlimit:2;">
    <g transform="matrix(1,0,0,1,0,-100)">
        <g>
            <g transform="matrix(0.841786,0,0,0.841795,-15.5061,-135.748)">
                <path d="M125.336,339.45C125.336,365.695 104.062,386.968 77.82,386.968C51.576,386.968 30.3,365.695 30.3,339.45C30.3,313.208 51.576,291.933 77.82,291.933C104.062,291.933 125.336,313.208 125.336,339.45Z" style="fill:rgb(182,210,233);fill-rule:nonzero;"/>
            </g>
            <g transform="matrix(0.841786,0,0,0.841795,-15.5061,-135.748)">
                <path d="M30.306,340.197L30.306,340.173L30.306,340.197ZM30.303,339.986C30.303,339.957 30.303,339.929 30.302,339.9C30.303,339.929 30.303,339.957 30.303,339.986ZM30.3,339.45C30.3,313.204 51.573,291.933 77.816,291.933L77.818,291.933C51.576,291.933 30.3,313.208 30.3,339.45Z" style="fill:rgb(205,219,232);fill-rule:nonzero;"/>
            </g>
            <g transform="matrix(0.841786,0,0,0.841795,-15.5061,-135.748)">
                <path d="M44.218,373.05C35.782,364.614 30.503,353.022 30.306,340.197L30.306,340.173C30.305,340.111 30.304,340.048 30.303,339.986C30.303,339.957 30.303,339.929 30.302,339.9C30.301,339.751 30.3,339.6 30.3,339.45C30.3,313.208 51.576,291.933 77.82,291.933C90.938,291.934 102.82,297.252 111.418,305.851L44.218,373.05Z" style="fill:rgb(157,195,224);fill-rule:nonzero;"/>
            </g>
            <g transform="matrix(0.841786,0,0,0.841795,-15.5061,-135.748)">
                <path d="M77.967,351.564C78.147,351.566 78.327,351.567 78.508,351.567C78.835,351.566 79.164,351.564 79.492,351.586C91.689,352.396 90.114,376.101 90.114,376.101C90.658,382.054 95.745,379.749 95.745,379.749C107.949,371.017 104.856,341.486 104.856,341.486C113.966,328.123 108.5,312.94 108.5,312.94C106.058,306.591 101.325,301.882 94.365,301.314C88.393,300.827 83.479,305.604 77.818,305.921C72.155,305.604 67.243,300.827 61.271,301.314C54.312,301.882 49.58,306.591 47.138,312.94C47.137,312.94 41.669,328.123 50.781,341.486C50.781,341.486 47.689,371.017 59.892,379.749C59.892,379.749 64.977,382.054 65.522,376.101C65.522,376.101 63.946,352.396 76.145,351.586C76.75,351.544 77.359,351.558 77.967,351.564Z" style="fill:rgb(240,233,219);fill-rule:nonzero;"/>
            </g>
            <g transform="matrix(0.841786,0,0,0.841795,-15.5061,-135.748)">
                <path d="M70.367,354.204C70.146,354.313 69.926,354.424 69.715,354.55C66.254,356.612 65.783,360.235 64.893,363.855C64.388,365.898 62.652,373.188 59.298,369.875C57.339,367.939 56.827,364.766 56.434,362.148C56.006,359.29 55.649,356.385 55.534,353.494C55.291,347.501 56.202,341.187 60.805,336.985C59.7,336.218 58.426,335.72 57.386,334.869C56.218,333.911 55.422,332.65 54.865,331.243C53.554,327.946 52.665,324.409 52.798,320.835C52.996,315.589 54.702,309.869 60.19,308.136C65.543,306.445 70.517,308.593 75.544,310.288C78.787,311.383 82.397,312.356 85.84,311.75C88.24,311.329 90.85,310.228 91.072,307.573C88.795,308.771 85.779,308.628 83.353,308.195C81.376,307.841 79.133,307.234 77.504,305.918C71.907,305.581 67.043,300.828 61.135,301.314C54.236,301.882 49.544,306.591 47.123,312.94C47.123,312.94 41.703,328.123 50.735,341.486C50.735,341.486 47.669,371.017 59.768,379.749C59.768,379.749 64.81,382.054 65.352,376.101C65.352,376.101 64.325,360.542 70.367,354.204Z" style="fill:rgb(239,192,148);fill-rule:nonzero;"/>
            </g>
            <g transform="matrix(0.841786,0,0,0.841795,-15.5061,-135.748)">
                <path d="M109.761,328.772C109.617,329.121 109.458,329.468 109.276,329.806C107.896,332.364 105.815,334.369 103.37,335.912C101.649,337.001 99.838,337.921 98.013,338.817C97.594,339.023 97.174,339.231 96.756,339.438C96.35,339.64 96.767,339.78 97.055,340.214C97.606,341.038 98.123,341.889 98.536,342.791C100.113,346.235 100.698,349.956 100.882,353.714C101.08,357.733 101.428,361.985 100.616,365.951C100.232,367.833 99.645,369.629 98.774,371.342C98.253,372.366 97.626,373.575 96.611,374.2C95.764,374.722 94.46,375.09 93.605,374.342C92.716,373.566 92.645,372.398 92.501,371.294C92.167,368.708 91.675,366.074 91.086,363.533C90.502,361.014 89.741,358.244 88,356.253C87.14,355.268 86.145,354.611 85.062,354.215C91.147,360.56 90.114,376.101 90.114,376.101C90.658,382.054 95.745,379.749 95.745,379.749C107.949,371.017 104.856,341.486 104.856,341.486C107.743,337.25 109.165,332.832 109.761,328.772Z" style="fill:rgb(239,192,148);fill-rule:nonzero;"/>
            </g>
            <g transform="matrix(0.841786,0,0,0.841795,-15.5061,-135.748)">
                <path d="M48.461,321.662C51.222,320.801 53.784,323.218 53.683,327.741C53.613,330.756 54.047,331.827 54.874,334.827C55.693,337.8 60.989,341.286 64.949,340.922C67.676,340.674 69.19,337.511 71.841,337.444C73.655,337.396 75.035,338.708 76.067,340.067C77.797,342.342 78.971,345.366 81.231,347.188C82.632,348.32 84.274,348.425 85.828,347.474C88.168,346.04 87.718,343.545 87.796,341.183C87.856,339.332 88.407,338.123 89.625,336.705C90.049,336.214 90.83,335.226 91.628,335.524C92.774,335.949 93.369,336.976 94.751,336.981C96.705,336.985 99.142,336.721 100.933,335.826C103.498,334.55 103.258,331.88 103.59,329.406C103.817,327.739 104.163,326.036 104.849,324.492C105.309,323.454 105.721,321.821 106.629,321.04C107.558,320.244 108.64,319.579 109.789,319.054C109.32,315.338 108.461,312.948 108.461,312.948C106.021,306.601 101.291,301.895 94.336,301.327C88.366,300.841 83.456,305.616 77.799,305.933C72.141,305.616 67.23,300.841 61.261,301.327C54.307,301.895 49.576,306.601 47.136,312.946C47.136,312.946 45.745,316.82 45.538,322.372C46.423,322.39 47.473,321.971 48.461,321.662Z" style="fill:rgb(239,192,148);fill-rule:nonzero;"/>
            </g>
            <g transform="matrix(0.841786,0,0,0.841795,-15.5061,-135.748)">
                <path d="M77.967,351.564L77.961,352.064C78.143,352.066 78.325,352.067 78.508,352.067L78.742,352.066C78.988,352.066 79.226,352.069 79.457,352.085C81.751,352.241 83.49,353.226 84.881,354.751C86.964,357.035 88.189,360.573 88.863,364.121C89.54,367.666 89.68,371.211 89.68,373.506C89.68,374.297 89.663,374.939 89.647,375.383C89.631,375.827 89.615,376.067 89.615,376.068L89.616,376.146C89.774,377.902 90.326,379.063 91.103,379.772C91.879,380.481 92.826,380.69 93.639,380.688C94.903,380.684 95.916,380.218 95.951,380.205L96.036,380.156C100.242,377.138 102.629,371.836 103.999,366.142C105.365,360.443 105.705,354.321 105.705,349.594C105.705,344.802 105.354,341.446 105.353,341.434L104.856,341.486L105.269,341.767C109.481,335.59 110.627,329.031 110.626,323.732C110.625,317.37 108.982,312.805 108.971,312.77L108.967,312.76C107.722,309.524 105.887,306.688 103.454,304.581C101.023,302.474 97.989,301.106 94.406,300.815C94.103,300.791 93.803,300.779 93.506,300.779C90.577,300.781 87.937,301.907 85.384,303.029C82.829,304.157 80.355,305.281 77.79,305.422L77.818,305.921L77.846,305.422C75.28,305.281 72.805,304.157 70.251,303.029C67.697,301.907 65.058,300.781 62.129,300.779C61.832,300.779 61.532,300.79 61.229,300.815C57.647,301.106 54.614,302.474 52.183,304.581C49.75,306.688 47.916,309.524 46.671,312.76L46.667,312.77C46.655,312.805 45.011,317.372 45.01,323.734C45.009,329.033 46.155,335.59 50.368,341.767L50.781,341.486L50.283,341.434C50.282,341.446 49.931,344.802 49.931,349.592C49.931,354.32 50.271,360.441 51.638,366.141C53.007,371.835 55.395,377.138 59.601,380.156L59.686,380.205C59.721,380.218 60.733,380.684 61.997,380.688C62.809,380.69 63.756,380.481 64.532,379.772C65.309,379.063 65.861,377.902 66.02,376.147L66.021,376.068C66.021,376.067 66.005,375.827 65.989,375.383C65.972,374.939 65.956,374.296 65.956,373.505C65.954,370.446 66.207,365.161 67.642,360.622C68.357,358.352 69.368,356.274 70.755,354.75C72.146,353.226 73.886,352.241 76.178,352.085C76.495,352.063 76.817,352.057 77.144,352.057C77.413,352.057 77.686,352.061 77.961,352.064L77.967,351.564L77.972,351.064C77.699,351.061 77.423,351.057 77.144,351.057C76.804,351.057 76.459,351.063 76.11,351.087C73.556,351.253 71.536,352.397 70.015,354.078C67.728,356.601 66.489,360.293 65.791,363.932C65.096,367.572 64.956,371.169 64.956,373.505C64.956,375.115 65.023,376.125 65.023,376.134L65.522,376.101L65.024,376.055C64.876,377.655 64.399,378.538 63.857,379.033C63.315,379.529 62.653,379.686 61.997,379.688C61.493,379.689 61.008,379.589 60.656,379.488C60.479,379.438 60.335,379.387 60.238,379.35L60.129,379.307L60.098,379.294L59.892,379.749L60.183,379.343C56.289,376.565 53.946,371.492 52.61,365.908C51.271,360.329 50.93,354.27 50.93,349.592C50.93,347.221 51.018,345.205 51.105,343.782C51.148,343.071 51.192,342.508 51.224,342.124C51.257,341.74 51.278,341.538 51.278,341.538C51.29,341.421 51.26,341.301 51.194,341.204C47.122,335.234 46.01,328.893 46.009,323.734C46.009,320.639 46.411,317.974 46.812,316.087C47.013,315.144 47.213,314.395 47.363,313.884C47.438,313.629 47.5,313.433 47.543,313.302C47.586,313.17 47.608,313.109 47.608,313.109L47.138,312.94L47.604,313.119C48.801,310.007 50.554,307.314 52.837,305.337C55.123,303.36 57.935,302.089 61.311,301.812C61.585,301.789 61.858,301.779 62.129,301.779C64.791,301.776 67.302,302.821 69.848,303.944C72.392,305.062 74.967,306.259 77.79,306.42L77.846,306.42C80.668,306.259 83.242,305.062 85.787,303.944C88.333,302.82 90.844,301.776 93.506,301.779C93.776,301.779 94.049,301.79 94.325,301.812C97.701,302.089 100.513,303.36 102.799,305.337C105.083,307.314 106.836,310.007 108.034,313.119L108.5,312.94L108.03,313.109C108.03,313.109 108.052,313.171 108.095,313.302C108.396,314.218 109.627,318.317 109.626,323.732C109.625,328.891 108.513,335.233 104.443,341.204C104.376,341.301 104.346,341.421 104.359,341.538C104.359,341.538 104.38,341.74 104.412,342.124C104.51,343.277 104.706,346.037 104.706,349.594C104.706,354.272 104.365,360.331 103.026,365.909C101.69,371.493 99.347,376.566 95.454,379.343L95.745,379.749L95.539,379.294L95.509,379.307C95.342,379.378 94.522,379.691 93.639,379.688C92.982,379.686 92.32,379.529 91.778,379.033C91.236,378.538 90.76,377.655 90.612,376.055L90.114,376.101L90.613,376.134C90.613,376.125 90.679,375.115 90.679,373.506C90.678,370.391 90.433,365.037 88.948,360.321C88.203,357.964 87.147,355.759 85.621,354.078C84.1,352.397 82.08,351.253 79.525,351.087C79.257,351.069 78.995,351.066 78.742,351.066L78.506,351.067C78.329,351.067 78.15,351.066 77.972,351.064L77.967,351.564Z" style="fill:rgb(133,17,86);fill-rule:nonzero;"/>
            </g>
            <g transform="matrix(0.841786,0,0,0.841795,-15.5061,-135.748)">
                <path d="M74.185,305.696C74.193,305.699 76.212,306.416 78.886,307.136C81.562,307.854 84.881,308.579 87.55,308.581C88.468,308.581 89.313,308.496 90.043,308.278C90.77,308.061 91.402,307.703 91.816,307.129C91.977,306.905 91.926,306.593 91.702,306.431C91.478,306.27 91.166,306.321 91.004,306.545C90.766,306.878 90.354,307.142 89.757,307.32C89.164,307.498 88.405,307.582 87.55,307.581C85.057,307.583 81.777,306.88 79.146,306.17C77.828,305.816 76.669,305.461 75.842,305.195C75.428,305.062 75.096,304.951 74.869,304.874C74.641,304.797 74.52,304.754 74.52,304.754C74.26,304.661 73.974,304.797 73.881,305.058C73.789,305.318 73.925,305.604 74.185,305.696Z" style="fill:rgb(133,17,86);fill-rule:nonzero;"/>
            </g>
        </g>
    </g>
</svg>
