<?xml version="1.0" encoding="UTF-8" standalone="no"?>
<!DOCTYPE svg PUBLIC "-//W3C//DTD SVG 1.1//EN" "http://www.w3.org/Graphics/SVG/1.1/DTD/svg11.dtd">
<svg width="100%" height="100%" viewBox="0 0 100 100" version="1.1" xmlns="http://www.w3.org/2000/svg" xmlns:xlink="http://www.w3.org/1999/xlink" xml:space="preserve" xmlns:serif="http://www.serif.com/" style="fill-rule:evenodd;clip-rule:evenodd;stroke-linejoin:round;stroke-miterlimit:2;">
    <g transform="matrix(1,0,0,1,-200,-100)">
        <g transform="matrix(1,0,0,1,257.994,157.99)">
            <g transform="matrix(0.841777,0,0,0.841795,-187.448,-294.54)">
                <path d="M260.704,340.404C260.704,366.646 239.43,387.921 213.185,387.921C186.943,387.921 165.667,366.646 165.667,340.404C165.667,314.159 186.943,292.886 213.185,292.886C239.43,292.886 260.704,314.159 260.704,340.404Z" style="fill:rgb(134,206,185);fill-rule:nonzero;"/>
            </g>
            <g transform="matrix(0.841777,0,0,0.841795,-187.448,-294.54)">
                <path d="M165.667,340.404C165.667,340.296 165.667,340.188 165.668,340.081C165.667,340.188 165.667,340.296 165.667,340.404ZM165.67,339.892C165.761,331.268 168.149,323.195 172.252,316.256C168.149,323.195 165.761,331.269 165.67,339.892ZM172.252,316.255C172.256,316.249 172.26,316.241 172.264,316.235C172.26,316.241 172.256,316.249 172.252,316.255ZM172.27,316.224C172.273,316.22 172.276,316.215 172.278,316.211C172.276,316.215 172.273,316.22 172.27,316.224ZM172.289,316.193C172.29,316.192 172.29,316.191 172.291,316.19C172.29,316.191 172.29,316.192 172.289,316.193ZM246.786,306.802C238.186,298.204 226.308,292.886 213.185,292.886L213.188,292.886C226.308,292.886 238.187,298.202 246.786,306.802Z" style="fill:rgb(184,217,207);fill-rule:nonzero;"/>
            </g>
            <g transform="matrix(0.841777,0,0,0.841795,-187.448,-294.54)">
                <path d="M179.586,374.003C170.987,365.402 165.667,353.523 165.667,340.404C165.667,340.296 165.667,340.188 165.668,340.081C165.668,340.017 165.669,339.956 165.67,339.892C165.761,331.269 168.149,323.195 172.252,316.256L172.252,316.255C172.256,316.249 172.26,316.241 172.264,316.235C172.266,316.231 172.268,316.228 172.27,316.224C172.273,316.22 172.276,316.215 172.278,316.211C172.282,316.205 172.285,316.199 172.289,316.193C172.29,316.192 172.29,316.191 172.291,316.19C180.571,302.238 195.788,292.886 213.188,292.886C226.308,292.886 238.186,298.204 246.786,306.802L179.586,374.003Z" style="fill:rgb(99,195,165);fill-rule:nonzero;"/>
            </g>
            <g transform="matrix(0.841777,0,0,0.841795,-187.448,-294.54)">
                <path d="M238.664,326.457C236.23,324.401 233.833,322.297 230.914,320.99C230.574,321.625 230.085,322.137 229.695,322.762C229.56,322.978 229.24,322.986 229.107,322.762C228.073,321.02 226.018,316.2 223.55,316.379C221.918,316.497 220.913,317.951 219.138,317.353C217.672,316.861 216.159,316.109 214.736,315.211C213.586,315.622 212.419,315.926 211.214,315.994C206.337,315.72 202.104,311.607 196.961,312.025C190.967,312.515 186.89,316.571 184.787,322.038C184.787,322.038 180.079,335.117 187.926,346.626C187.926,346.626 185.263,372.061 195.772,379.583C195.772,379.583 200.153,381.567 200.623,376.44C200.623,376.44 199.266,356.022 209.771,355.325C210.293,355.291 210.817,355.301 211.342,355.305C211.497,355.306 211.651,355.307 211.807,355.307C212.089,355.306 212.373,355.305 212.654,355.325C223.16,356.022 221.803,376.44 221.803,376.44C222.272,381.567 226.652,379.583 226.652,379.583C237.163,372.061 234.5,346.626 234.5,346.626C239.519,339.265 239.4,331.27 238.664,326.457Z" style="fill:rgb(240,233,219);fill-rule:nonzero;"/>
            </g>
            <g transform="matrix(0.841777,0,0,0.841795,-187.448,-294.54)">
                <path d="M196.702,317.283C197.34,316.936 198,316.636 198.674,316.391C199.882,315.951 208.316,314.546 208.697,315.655L208.646,315.52C204.792,314.387 201.183,311.682 196.961,312.025C190.967,312.515 186.89,316.571 184.787,322.038C184.787,322.038 180.079,335.117 187.926,346.626C187.926,346.626 185.263,372.061 195.772,379.583C195.772,379.583 200.153,381.567 200.623,376.44C200.623,376.44 199.732,363.039 204.981,357.58C204.789,357.672 204.599,357.769 204.415,357.878C201.408,359.656 200.998,362.774 200.225,365.892C199.787,367.651 198.279,373.931 195.365,371.076C193.663,369.409 193.218,366.677 192.876,364.422C192.504,361.96 192.195,359.457 192.094,356.971C191.884,351.807 192.676,346.367 196.674,342.748C195.715,342.089 194.606,341.659 193.704,340.928C192.692,340.106 192.003,339.024 191.519,337.819C188.599,330.558 189.175,321.403 196.702,317.283Z" style="fill:rgb(238,205,203);fill-rule:nonzero;"/>
            </g>
            <g transform="matrix(0.841777,0,0,0.841795,-187.448,-294.54)">
                <path d="M238.725,335.675C238.601,335.976 238.464,336.275 238.307,336.566C237.12,338.769 235.327,340.496 233.222,341.825C231.738,342.763 230.179,343.554 228.607,344.327C228.246,344.505 227.884,344.682 227.525,344.861C227.174,345.035 227.534,345.155 227.782,345.53C228.256,346.241 228.701,346.972 229.058,347.75C230.415,350.715 230.919,353.921 231.078,357.159C231.248,360.619 231.548,364.281 230.849,367.7C230.518,369.319 230.012,370.867 229.262,372.34C228.814,373.222 228.274,374.264 227.398,374.802C226.668,375.251 225.547,375.57 224.81,374.924C224.045,374.256 223.982,373.25 223.859,372.299C223.572,370.072 223.147,367.804 222.641,365.616C222.137,363.446 221.483,361.061 219.981,359.345C219.242,358.496 218.386,357.929 217.453,357.589C222.693,363.053 221.803,376.44 221.803,376.44C222.272,381.567 226.652,379.583 226.652,379.583C237.163,372.061 234.5,346.626 234.5,346.626C236.987,342.979 238.211,339.172 238.725,335.675Z" style="fill:rgb(238,205,203);fill-rule:nonzero;"/>
            </g>
            <g transform="matrix(0.841777,0,0,0.841795,-187.448,-294.54)">
                <path d="M238.664,326.457L238.987,326.075C236.557,324.025 234.127,321.883 231.118,320.533C230.878,320.426 230.596,320.522 230.472,320.754C230.179,321.312 229.699,321.818 229.271,322.497L229.397,322.574L229.397,322.427L229.272,322.496L229.397,322.574L229.397,322.427L229.397,322.59L229.537,322.507L229.397,322.427L229.397,322.59L229.537,322.507C229.051,321.69 228.286,320.07 227.333,318.648C226.853,317.935 226.325,317.265 225.729,316.752C225.137,316.244 224.454,315.876 223.683,315.874L223.51,315.881L223.514,315.88C222.716,315.94 222.083,316.26 221.526,316.523C220.966,316.792 220.489,316.998 219.981,316.997C219.771,316.996 219.549,316.964 219.297,316.879C217.878,316.403 216.397,315.668 215.003,314.788C214.873,314.706 214.712,314.689 214.568,314.74C213.445,315.142 212.325,315.431 211.186,315.495L211.214,315.994L211.242,315.495C209.049,315.375 206.925,314.412 204.723,313.439C202.523,312.473 200.24,311.497 197.699,311.495C197.442,311.495 197.181,311.505 196.919,311.526C193.82,311.778 191.192,312.963 189.088,314.787C186.982,316.61 185.396,319.063 184.32,321.859L184.317,321.869C184.305,321.904 182.887,325.843 182.886,331.335C182.885,335.908 183.875,341.573 187.512,346.908L187.926,346.626L187.428,346.574C187.427,346.586 187.124,349.479 187.124,353.608C187.125,357.683 187.417,362.96 188.596,367.878C189.778,372.79 191.837,377.373 195.481,379.99L195.566,380.039C195.602,380.052 196.479,380.457 197.585,380.46C198.295,380.462 199.131,380.279 199.816,379.653C200.501,379.028 200.983,378.008 201.121,376.485L201.122,376.406C201.122,376.406 201.108,376.2 201.094,375.819C201.08,375.437 201.065,374.884 201.065,374.204C201.064,371.573 201.282,367.026 202.514,363.128C203.128,361.179 203.996,359.399 205.181,358.097C206.37,356.795 207.849,355.958 209.804,355.824C210.09,355.805 210.382,355.8 210.679,355.8C210.896,355.8 211.115,355.803 211.337,355.805C211.494,355.806 211.649,355.807 211.807,355.807L211.987,355.806C212.205,355.806 212.416,355.809 212.617,355.824L212.621,355.824C214.576,355.958 216.055,356.795 217.244,358.097C219.024,360.048 220.078,363.085 220.657,366.133C221.239,369.181 221.36,372.23 221.36,374.204C221.36,374.885 221.345,375.437 221.331,375.819C221.317,376.201 221.304,376.406 221.304,376.407L221.305,376.485C221.442,378.008 221.923,379.028 222.609,379.653C223.294,380.279 224.129,380.462 224.84,380.46C225.945,380.457 226.823,380.052 226.858,380.039L226.943,379.99C230.588,377.373 232.647,372.79 233.829,367.877C235.008,362.96 235.3,357.682 235.301,353.608C235.301,349.478 234.998,346.586 234.997,346.574L234.5,346.626L234.913,346.908C238.55,341.574 239.539,335.914 239.538,331.343C239.538,329.48 239.374,327.795 239.158,326.382C239.14,326.262 239.08,326.154 238.987,326.075L238.664,326.457L238.17,326.533C238.379,327.904 238.538,329.539 238.538,331.343C238.537,335.775 237.582,341.217 234.087,346.345C234.02,346.442 233.99,346.561 234.003,346.678C234.003,346.679 234.021,346.852 234.049,347.182C234.133,348.173 234.301,350.547 234.301,353.608C234.302,357.633 234.008,362.847 232.856,367.644C231.708,372.446 229.693,376.801 226.361,379.177L226.652,379.583L226.446,379.128L226.422,379.138C226.284,379.198 225.584,379.463 224.84,379.461C224.285,379.459 223.735,379.326 223.283,378.915C222.833,378.503 222.427,377.762 222.301,376.394L221.803,376.44L222.302,376.473C222.302,376.464 222.359,375.592 222.359,374.204C222.358,371.517 222.148,366.901 220.864,362.827C220.22,360.791 219.308,358.883 217.984,357.424C216.665,355.966 214.906,354.97 212.687,354.826L212.691,354.827C212.448,354.809 212.213,354.806 211.987,354.806L211.804,354.807C211.653,354.807 211.5,354.806 211.345,354.805C211.126,354.803 210.903,354.8 210.679,354.8C210.37,354.8 210.057,354.806 209.739,354.826C207.519,354.97 205.76,355.966 204.44,357.424C202.457,359.615 201.389,362.805 200.786,365.946C200.186,369.088 200.066,372.189 200.065,374.204C200.065,375.593 200.124,376.464 200.124,376.473L200.623,376.44L200.125,376.394C199.998,377.761 199.593,378.502 199.142,378.915C198.69,379.326 198.139,379.459 197.585,379.461C197.159,379.461 196.748,379.377 196.448,379.291C196.299,379.248 196.177,379.206 196.095,379.175L196.003,379.138L195.979,379.128L195.772,379.583L196.063,379.177C192.732,376.801 190.717,372.446 189.569,367.644C188.417,362.848 188.124,357.634 188.124,353.608C188.124,351.568 188.199,349.832 188.274,348.608C188.311,347.996 188.349,347.512 188.377,347.182C188.405,346.852 188.423,346.679 188.423,346.678C188.435,346.561 188.405,346.442 188.339,346.345C184.842,341.216 183.886,335.769 183.886,331.335C183.886,328.675 184.231,326.385 184.575,324.763C184.748,323.953 184.92,323.309 185.048,322.871C185.112,322.652 185.165,322.484 185.202,322.372C185.239,322.26 185.258,322.208 185.257,322.208L184.787,322.038L185.254,322.218C186.281,319.546 187.785,317.237 189.742,315.543C191.701,313.849 194.108,312.761 197.001,312.523C197.235,312.503 197.467,312.495 197.699,312.495C199.973,312.492 202.127,313.386 204.32,314.354C206.511,315.316 208.737,316.352 211.186,316.494L211.242,316.494C212.513,316.421 213.727,316.103 214.905,315.682L214.736,315.211L214.469,315.634C215.921,316.549 217.466,317.319 218.979,317.827C219.327,317.944 219.663,317.997 219.981,317.997C220.763,317.995 221.394,317.692 221.956,317.426C222.522,317.155 223.028,316.917 223.586,316.878L223.59,316.877L223.683,316.874C224.116,316.872 224.587,317.089 225.078,317.511C225.813,318.138 226.535,319.189 227.148,320.241C227.765,321.296 228.278,322.344 228.677,323.017C228.834,323.287 229.127,323.43 229.397,323.427C229.671,323.428 229.954,323.289 230.118,323.028C230.47,322.456 230.969,321.938 231.354,321.225L230.914,320.99L230.709,321.446C233.538,322.711 235.903,324.777 238.341,326.839L238.664,326.457L238.17,326.533L238.664,326.457Z" style="fill:rgb(133,17,86);fill-rule:nonzero;"/>
            </g>
            <g transform="matrix(0.841777,0,0,0.841795,-187.448,-294.54)">
                <path d="M228.264,309.496C229.008,308.478 230.139,306.615 231.258,304.749C232.374,302.887 233.474,301.025 234.103,300.081C234.256,299.852 234.194,299.541 233.965,299.388C233.735,299.235 233.425,299.297 233.272,299.527C232.611,300.518 231.516,302.373 230.4,304.235C229.287,306.092 228.15,307.96 227.457,308.905C227.293,309.128 227.342,309.441 227.565,309.604C227.788,309.767 228.101,309.719 228.264,309.496Z" style="fill:rgb(133,17,86);fill-rule:nonzero;"/>
            </g>
            <g transform="matrix(0.841777,0,0,0.841795,-187.448,-294.54)">
                <path d="M224.143,308.938C224.143,306.532 224.036,301.95 223.906,297.311C223.899,297.035 223.669,296.818 223.393,296.826C223.116,296.833 222.899,297.063 222.907,297.34C223.036,301.973 223.144,306.557 223.144,308.938C223.144,309.214 223.367,309.438 223.644,309.438C223.92,309.438 224.144,309.214 224.144,308.938L224.143,308.938Z" style="fill:rgb(133,17,86);fill-rule:nonzero;"/>
            </g>
            <g transform="matrix(0.841777,0,0,0.841795,-187.448,-294.54)">
                <path d="M220.089,309.793C217.006,304.241 216.082,303.058 213.955,298.749C213.833,298.501 213.533,298.399 213.285,298.522C213.038,298.644 212.936,298.944 213.059,299.191C215.212,303.554 216.152,304.763 219.215,310.278C219.349,310.52 219.653,310.607 219.895,310.473C220.136,310.339 220.223,310.034 220.09,309.793L220.089,309.793Z" style="fill:rgb(133,17,86);fill-rule:nonzero;"/>
            </g>
        </g>
    </g>
</svg>
