<?xml version="1.0" encoding="UTF-8" standalone="no"?>
<!DOCTYPE svg PUBLIC "-//W3C//DTD SVG 1.1//EN" "http://www.w3.org/Graphics/SVG/1.1/DTD/svg11.dtd">
<svg width="100%" height="100%" viewBox="0 0 100 100" version="1.1" xmlns="http://www.w3.org/2000/svg" xmlns:xlink="http://www.w3.org/1999/xlink" xml:space="preserve" xmlns:serif="http://www.serif.com/" style="fill-rule:evenodd;clip-rule:evenodd;stroke-linejoin:round;stroke-miterlimit:2;">
    <g transform="matrix(1,0,0,1,-100,-200)">
        <g>
            <g transform="matrix(0.841786,0,0,0.841804,-28.4671,177.659)">
                <path d="M259.528,85.936C259.528,112.178 238.254,133.453 212.011,133.453C185.768,133.453 164.492,112.178 164.492,85.936C164.492,59.69 185.768,38.419 212.011,38.419C238.254,38.419 259.528,59.69 259.528,85.936Z" style="fill:rgb(125,203,193);fill-rule:nonzero;"/>
            </g>
            <g transform="matrix(0.841786,0,0,0.841804,-28.4671,177.659)">
                <path d="M212.869,38.426C212.828,38.426 212.787,38.425 212.746,38.424C212.787,38.425 212.828,38.426 212.869,38.426ZM212.529,38.422C212.356,38.42 212.184,38.419 212.011,38.419C212.184,38.419 212.356,38.42 212.529,38.422Z" style="fill:rgb(180,215,210);fill-rule:nonzero;"/>
            </g>
            <g transform="matrix(0.841786,0,0,0.841804,-28.4671,177.659)">
                <path d="M178.412,119.535C169.88,111.003 164.575,99.243 164.493,86.244C164.492,86.141 164.492,86.039 164.492,85.936C164.492,59.69 185.768,38.419 212.011,38.419C212.184,38.419 212.356,38.42 212.529,38.422C212.601,38.422 212.674,38.423 212.746,38.424C212.787,38.425 212.828,38.426 212.869,38.426C225.651,38.653 237.201,43.925 245.61,52.337L178.412,119.535Z" style="fill:rgb(87,192,174);fill-rule:nonzero;"/>
            </g>
            <g transform="matrix(0.841786,0,0,0.841804,-28.4671,177.659)">
                <path d="M211.348,95.776C211.512,95.778 211.675,95.779 211.839,95.779C212.137,95.778 212.437,95.776 212.733,95.797C223.817,96.532 222.385,118.073 222.385,118.073C222.879,123.479 227.5,121.387 227.5,121.387C238.589,113.451 235.779,86.62 235.779,86.62C244.056,74.479 239.089,60.683 239.089,60.682C236.871,54.914 232.571,50.635 226.249,50.119C220.821,49.677 216.356,54.017 211.213,54.305C206.069,54.017 201.605,49.677 196.177,50.119C189.854,50.635 185.555,54.914 183.335,60.682C183.335,60.683 178.369,74.479 186.647,86.62C186.647,86.62 183.836,113.451 194.924,121.387C194.924,121.387 199.546,123.479 200.041,118.073C200.041,118.073 198.608,96.532 209.692,95.797C210.242,95.76 210.796,95.771 211.348,95.776Z" style="fill:rgb(240,233,219);fill-rule:nonzero;"/>
            </g>
            <g transform="matrix(0.841786,0,0,0.841804,-28.4671,177.659)">
                <path d="M228.653,81.179C226.015,81.84 223.665,83.361 222.572,85.946C221.5,88.484 221.265,91.479 222.1,94.121C223.61,98.906 227.944,102.508 232.824,103.503C233.694,103.68 234.592,103.765 235.496,103.771C236.655,94.995 235.779,86.62 235.779,86.62C236.932,84.93 237.821,83.208 238.508,81.494C235.229,80.686 231.785,80.396 228.653,81.179Z" style="fill:rgb(246,154,155);fill-rule:nonzero;"/>
            </g>
            <g transform="matrix(0.841786,0,0,0.841804,-28.4671,177.659)">
                <path d="M230.98,84.849C228.183,85.75 226.303,88.268 227.019,91.307C227.55,93.565 229.378,95.565 231.736,95.943C233.566,96.237 235.017,95.536 236.095,94.364C236.114,89.834 235.779,86.62 235.779,86.62C236.077,86.185 236.354,85.745 236.618,85.306C235.13,84.22 232.668,84.304 230.98,84.849Z" style="fill:rgb(237,81,79);fill-rule:nonzero;"/>
            </g>
            <g transform="matrix(0.841786,0,0,0.841804,-28.4671,177.659)">
                <path d="M204.639,98.176C204.437,98.273 204.236,98.376 204.041,98.491C200.869,100.365 200.438,103.654 199.622,106.943C199.16,108.799 197.569,115.425 194.495,112.413C192.698,110.654 192.229,107.771 191.87,105.392C191.477,102.796 191.15,100.157 191.044,97.532C190.822,92.086 191.657,86.347 195.875,82.529C194.863,81.835 193.694,81.381 192.742,80.608C191.67,79.738 190.942,78.591 190.43,77.314C189.23,74.318 188.415,71.103 188.538,67.856C188.719,63.09 190.282,57.893 195.312,56.318C200.218,54.782 204.776,56.733 209.382,58.274C212.356,59.268 215.664,60.152 218.819,59.603C221.019,59.22 223.409,58.218 223.615,55.805C221.528,56.894 218.763,56.763 216.539,56.37C214.727,56.05 212.672,55.496 211.18,54.303C206.05,53.996 201.593,49.677 196.177,50.119C189.854,50.635 185.555,54.914 183.335,60.682C183.335,60.683 178.369,74.479 186.647,86.62C186.647,86.62 183.836,113.451 194.924,121.387C194.924,121.387 199.546,123.479 200.041,118.073C200.041,118.073 199.101,103.935 204.639,98.176Z" style="fill:rgb(238,205,203);fill-rule:nonzero;"/>
            </g>
            <g transform="matrix(0.841786,0,0,0.841804,-28.4671,177.659)">
                <path d="M211.348,95.776L211.344,96.276C211.508,96.277 211.672,96.279 211.839,96.279L211.843,96.279L212.07,96.278C212.286,96.278 212.496,96.281 212.698,96.295C214.771,96.437 216.338,97.325 217.596,98.703C219.48,100.768 220.592,103.976 221.203,107.195C221.818,110.413 221.945,113.632 221.945,115.716C221.945,116.433 221.93,117.017 221.915,117.419C221.901,117.822 221.886,118.039 221.886,118.04L221.887,118.118C222.032,119.72 222.537,120.787 223.253,121.441C223.969,122.095 224.842,122.287 225.587,122.285C226.747,122.281 227.671,121.855 227.707,121.842L227.791,121.793C231.627,119.04 233.798,114.212 235.044,109.034C236.287,103.85 236.596,98.286 236.596,93.988C236.596,89.632 236.277,86.581 236.276,86.568L235.779,86.62L236.192,86.902C240.025,81.28 241.067,75.311 241.067,70.49C241.066,64.701 239.571,60.548 239.56,60.512L239.556,60.502C238.423,57.557 236.752,54.973 234.535,53.053C232.32,51.133 229.554,49.886 226.289,49.621C226.012,49.598 225.738,49.587 225.466,49.588C222.792,49.59 220.388,50.617 218.068,51.636C215.746,52.661 213.503,53.679 211.185,53.806L211.213,54.305L211.241,53.806C208.922,53.679 206.679,52.661 204.357,51.636C202.037,50.616 199.632,49.59 196.959,49.587C196.688,49.587 196.413,49.598 196.135,49.621C192.872,49.886 190.105,51.133 187.89,53.053C185.673,54.973 184.002,57.557 182.869,60.502L182.865,60.512C182.853,60.548 181.359,64.701 181.358,70.489C181.357,75.31 182.4,81.279 186.234,86.902L186.647,86.62L186.15,86.568C186.148,86.581 185.829,89.632 185.829,93.989C185.829,98.286 186.138,103.851 187.381,109.034C188.627,114.212 190.798,119.04 194.633,121.793L194.718,121.842C194.753,121.855 195.677,122.281 196.837,122.285C197.582,122.287 198.456,122.095 199.172,121.441C199.888,120.787 200.394,119.72 200.538,118.119L200.539,118.04C200.539,118.039 200.525,117.822 200.51,117.419C200.495,117.016 200.479,116.433 200.479,115.715C200.478,112.937 200.708,108.138 202.01,104.021C202.658,101.962 203.574,100.081 204.829,98.703C206.087,97.325 207.655,96.437 209.725,96.296C210.019,96.276 210.319,96.27 210.624,96.27C210.861,96.27 211.1,96.273 211.343,96.276L211.348,95.776L211.354,95.276C211.113,95.273 210.869,95.27 210.624,95.27C210.306,95.27 209.984,95.276 209.659,95.298C207.325,95.449 205.477,96.495 204.088,98.03C202.001,100.334 200.875,103.696 200.239,107.007C199.607,110.319 199.48,113.59 199.48,115.715C199.48,117.179 199.541,118.097 199.542,118.106L200.041,118.073L199.542,118.027C199.408,119.473 198.979,120.262 198.497,120.702C198.015,121.142 197.426,121.283 196.837,121.285C196.385,121.285 195.948,121.196 195.63,121.105C195.471,121.059 195.342,121.014 195.255,120.981L195.157,120.942L195.13,120.931L194.924,121.387L195.215,120.98C191.692,118.467 189.565,113.869 188.353,108.801C187.138,103.738 186.828,98.237 186.828,93.989C186.828,91.835 186.908,90.003 186.987,88.711C187.026,88.064 187.066,87.553 187.095,87.205C187.125,86.856 187.144,86.673 187.144,86.672C187.156,86.555 187.126,86.436 187.06,86.339C183.367,80.923 182.358,75.171 182.357,70.489C182.357,67.681 182.722,65.263 183.085,63.551C183.267,62.695 183.449,62.016 183.584,61.553C183.652,61.321 183.708,61.144 183.747,61.025L183.792,60.892L183.806,60.851L183.335,60.682L183.802,60.861C184.888,58.039 186.476,55.599 188.545,53.809C190.615,52.019 193.16,50.869 196.218,50.618C196.466,50.597 196.713,50.587 196.959,50.587C199.366,50.585 201.641,51.53 203.954,52.551C206.266,53.566 208.61,54.657 211.185,54.805L211.241,54.805C213.816,54.657 216.159,53.566 218.471,52.551C220.784,51.53 223.059,50.585 225.466,50.587C225.711,50.588 225.958,50.597 226.208,50.618C229.266,50.869 231.811,52.019 233.881,53.809C235.949,55.599 237.537,58.039 238.623,60.861L239.089,60.682L238.619,60.851C238.619,60.851 238.639,60.907 238.677,61.025C238.95,61.855 240.067,65.576 240.067,70.49C240.066,75.172 239.057,80.924 235.365,86.339C235.299,86.436 235.269,86.555 235.281,86.672C235.281,86.673 235.301,86.856 235.33,87.204C235.418,88.251 235.596,90.758 235.596,93.988C235.597,98.236 235.287,103.737 234.072,108.8C232.859,113.868 230.732,118.467 227.209,120.98L227.5,121.387L227.294,120.931L227.268,120.942C227.12,121.006 226.38,121.287 225.587,121.285C224.998,121.283 224.409,121.142 223.927,120.702C223.446,120.262 223.017,119.473 222.883,118.028L222.385,118.073L222.884,118.106C222.885,118.097 222.945,117.179 222.945,115.716C222.943,112.882 222.721,108.014 221.369,103.721C220.691,101.574 219.729,99.565 218.337,98.03C216.948,96.496 215.1,95.449 212.766,95.298C212.528,95.281 212.295,95.278 212.07,95.278L211.836,95.279L211.839,95.279C211.678,95.279 211.517,95.278 211.353,95.276L211.348,95.776Z" style="fill:rgb(133,17,86);fill-rule:nonzero;"/>
            </g>
            <g transform="matrix(0.841786,0,0,0.841804,-28.4671,177.659)">
                <path d="M207.896,54.144C207.904,54.147 209.74,54.799 212.17,55.453C214.604,56.106 217.622,56.765 220.055,56.767C220.892,56.767 221.664,56.689 222.334,56.49C223.001,56.291 223.585,55.962 223.969,55.43C224.131,55.206 224.08,54.893 223.856,54.732C223.632,54.57 223.32,54.621 223.158,54.845C222.949,55.136 222.584,55.372 222.048,55.532C221.515,55.692 220.829,55.768 220.055,55.767C217.797,55.77 214.819,55.132 212.43,54.487C211.234,54.166 210.182,53.844 209.43,53.602C209.054,53.482 208.753,53.381 208.547,53.311C208.341,53.241 208.231,53.202 208.231,53.202C207.97,53.11 207.685,53.246 207.592,53.506C207.5,53.766 207.636,54.052 207.896,54.144Z" style="fill:rgb(133,17,86);fill-rule:nonzero;"/>
            </g>
            <g transform="matrix(0.841786,0,0,0.841804,-28.4671,177.659)">
                <path d="M238.666,96.138C239.563,97.116 241.258,98.672 242.957,100.215C244.652,101.753 246.351,103.276 247.198,104.124C247.393,104.32 247.709,104.32 247.905,104.125C248.1,103.929 248.1,103.613 247.905,103.417C247.017,102.53 245.324,101.013 243.629,99.474C241.937,97.939 240.24,96.377 239.403,95.462C239.216,95.259 238.9,95.245 238.697,95.432C238.493,95.618 238.479,95.934 238.666,96.138Z" style="fill:rgb(133,17,86);fill-rule:nonzero;"/>
            </g>
            <g transform="matrix(0.841786,0,0,0.841804,-28.4671,177.659)">
                <path d="M239.823,92.987C240.247,92.987 240.748,92.988 241.31,92.988C244.086,92.988 248.339,92.969 252.199,92.744C252.475,92.728 252.686,92.491 252.669,92.216C252.653,91.94 252.417,91.73 252.141,91.746C248.318,91.969 244.08,91.988 241.31,91.988C240.749,91.988 240.248,91.987 239.823,91.988C239.546,91.988 239.323,92.211 239.323,92.488C239.323,92.764 239.546,92.988 239.823,92.988L239.823,92.987Z" style="fill:rgb(133,17,86);fill-rule:nonzero;"/>
            </g>
            <g transform="matrix(0.841786,0,0,0.841804,-28.4671,177.659)">
                <path d="M240.113,89.581C242.314,88.009 246.879,84.927 249.914,82.096C250.115,81.908 250.126,81.591 249.938,81.39C249.75,81.188 249.433,81.177 249.232,81.365C246.289,84.113 241.748,87.187 239.532,88.768C239.307,88.928 239.255,89.24 239.416,89.465C239.576,89.69 239.889,89.742 240.114,89.582L240.113,89.581Z" style="fill:rgb(133,17,86);fill-rule:nonzero;"/>
            </g>
        </g>
    </g>
</svg>
