<?xml version="1.0" encoding="UTF-8" standalone="no"?>
<!DOCTYPE svg PUBLIC "-//W3C//DTD SVG 1.1//EN" "http://www.w3.org/Graphics/SVG/1.1/DTD/svg11.dtd">
<svg width="100%" height="100%" viewBox="0 0 100 100" version="1.1" xmlns="http://www.w3.org/2000/svg" xmlns:xlink="http://www.w3.org/1999/xlink" xml:space="preserve" xmlns:serif="http://www.serif.com/" style="fill-rule:evenodd;clip-rule:evenodd;stroke-linejoin:round;stroke-miterlimit:2;">
    <g transform="matrix(1,0,0,1,-100,0)">
        <g>
            <g transform="matrix(0.841804,0,0,0.841804,-142.428,-129.447)">
                <path d="M394.9,213.17C394.9,239.411 373.626,260.687 347.383,260.687C321.139,260.687 299.866,239.411 299.866,213.17C299.866,186.926 321.139,165.653 347.383,165.653C373.626,165.653 394.9,186.926 394.9,213.17Z" style="fill:rgb(74,197,217);fill-rule:nonzero;"/>
            </g>
            <g transform="matrix(0.841804,0,0,0.841804,-142.428,-129.447)">
                <path d="M301.927,227.055C301.925,227.05 301.924,227.045 301.922,227.04C301.924,227.045 301.925,227.049 301.927,227.055ZM301.916,227.02C300.658,222.885 299.949,218.511 299.873,213.983C299.949,218.51 300.659,222.886 301.916,227.02ZM299.872,213.922C299.869,213.75 299.868,213.577 299.867,213.405C299.868,213.578 299.869,213.75 299.872,213.922ZM380.983,179.57C372.384,170.971 360.504,165.653 347.383,165.653L347.385,165.653C360.506,165.653 372.385,170.971 380.984,179.569" style="fill:rgb(163,212,222);fill-rule:nonzero;"/>
            </g>
            <g transform="matrix(0.841804,0,0,0.841804,-142.428,-129.447)">
                <path d="M313.784,246.769C308.35,241.335 304.227,234.593 301.927,227.055C301.925,227.049 301.924,227.045 301.922,227.04C301.92,227.033 301.918,227.027 301.916,227.02C300.659,222.886 299.949,218.51 299.873,213.983C299.873,213.962 299.872,213.943 299.872,213.922C299.869,213.75 299.868,213.578 299.867,213.405C299.866,213.327 299.866,213.249 299.866,213.17C299.866,186.926 321.143,165.653 347.385,165.653C360.504,165.653 372.384,170.971 380.983,179.57L376.539,184.014C375.498,182.18 374.214,180.558 372.685,179.233C370.34,177.201 367.413,175.882 363.957,175.601C363.667,175.578 363.379,175.566 363.093,175.566L363.085,175.566C360.259,175.569 357.713,176.655 355.253,177.736C352.801,178.818 350.428,179.896 347.973,180.038C345.516,179.896 343.142,178.819 340.69,177.736C338.23,176.655 335.685,175.568 332.859,175.566L332.855,175.566C332.568,175.566 332.279,175.577 331.987,175.602C328.532,175.882 325.604,177.201 323.259,179.233C320.912,181.266 319.142,184.001 317.942,187.121L317.938,187.131C317.926,187.167 316.342,191.568 316.342,197.702C316.341,202.768 317.427,209.028 321.405,214.941C321.335,215.686 321.083,218.639 321.083,222.619C321.083,227.008 321.387,232.645 322.587,237.966L313.784,246.769Z" style="fill:rgb(10,188,205);fill-rule:nonzero;"/>
            </g>
            <g transform="matrix(0.841804,0,0,0.841804,-142.428,-129.447)">
                <path d="M348.116,224.518C348.29,224.518 348.463,224.52 348.637,224.52C348.951,224.518 349.27,224.518 349.584,224.541C361.338,225.32 359.819,248.165 359.819,248.165C360.346,253.896 365.245,251.679 365.245,251.679C377.005,243.263 374.024,214.81 374.024,214.81C382.802,201.934 377.537,187.302 377.535,187.301C375.182,181.184 370.622,176.646 363.917,176.1C358.161,175.629 353.426,180.233 347.973,180.539C342.518,180.233 337.782,175.629 332.028,176.1C325.323,176.646 320.761,181.184 318.409,187.301C318.409,187.302 313.142,201.934 321.92,214.81C321.92,214.81 318.941,243.263 330.698,251.679C330.698,251.679 335.6,253.896 336.124,248.165C336.124,248.165 334.605,225.32 346.358,224.541C346.944,224.501 347.529,224.511 348.116,224.518Z" style="fill:rgb(240,233,219);fill-rule:nonzero;"/>
            </g>
            <g transform="matrix(0.841804,0,0,0.841804,-142.428,-129.447)">
                <path d="M340.999,227.065C340.786,227.166 340.572,227.278 340.366,227.398C337.002,229.385 336.544,232.872 335.68,236.363C335.189,238.329 333.503,245.356 330.241,242.162C328.338,240.297 327.841,237.239 327.458,234.717C327.042,231.965 326.695,229.163 326.583,226.383C326.348,220.605 327.233,214.519 331.707,210.47C330.634,209.734 329.394,209.254 328.386,208.432C327.249,207.509 326.475,206.294 325.933,204.939C324.658,201.762 323.794,198.353 323.925,194.908C324.116,189.855 325.775,184.343 331.11,182.673C336.311,181.044 341.146,183.114 346.031,184.748C349.184,185.803 352.692,186.74 356.038,186.157C358.37,185.75 360.907,184.687 361.124,182.129C358.91,183.286 355.979,183.146 353.622,182.729C351.698,182.388 349.519,181.802 347.937,180.535C342.496,180.21 337.77,175.632 332.028,176.1C325.323,176.646 320.761,181.184 318.409,187.301C318.409,187.302 313.142,201.934 321.92,214.81C321.92,214.81 318.941,243.263 330.698,251.679C330.698,251.679 335.6,253.896 336.124,248.165C336.124,248.165 335.128,233.171 340.999,227.065Z" style="fill:rgb(238,205,203);fill-rule:nonzero;"/>
            </g>
            <g transform="matrix(0.841804,0,0,0.841804,-142.428,-129.447)">
                <path d="M378.75,202.557C378.612,202.895 378.459,203.228 378.283,203.554C376.955,206.017 374.947,207.949 372.594,209.439C370.936,210.485 369.19,211.372 367.432,212.238C367.028,212.437 366.623,212.633 366.221,212.834C365.828,213.028 366.229,213.164 366.508,213.582C367.038,214.376 367.538,215.197 367.935,216.066C369.454,219.384 370.017,222.968 370.196,226.589C370.387,230.462 370.722,234.559 369.94,238.384C369.568,240.197 369.003,241.926 368.165,243.576C367.663,244.562 367.06,245.728 366.079,246.33C365.262,246.833 364.008,247.189 363.185,246.469C362.328,245.72 362.258,244.593 362.12,243.531C361.8,241.04 361.324,238.499 360.757,236.056C360.193,233.626 359.463,230.957 357.782,229.037C356.955,228.086 355.997,227.452 354.952,227.074C360.813,233.187 359.819,248.165 359.819,248.165C360.346,253.896 365.245,251.679 365.245,251.679C377.005,243.263 374.024,214.81 374.024,214.81C376.807,210.726 378.176,206.47 378.75,202.557Z" style="fill:rgb(238,205,203);fill-rule:nonzero;"/>
            </g>
            <g transform="matrix(0.841804,0,0,0.841804,-142.428,-129.447)">
                <path d="M348.116,224.518L348.116,225.018C348.286,225.018 348.459,225.02 348.637,225.02L348.64,225.02L348.848,225.019C349.088,225.019 349.321,225.023 349.546,225.04L349.551,225.04C351.754,225.19 353.425,226.136 354.763,227.602C356.767,229.799 357.947,233.206 358.596,236.623C359.248,240.038 359.383,243.453 359.383,245.664C359.383,246.426 359.367,247.045 359.351,247.473C359.336,247.901 359.32,248.132 359.32,248.132L359.321,248.211C359.475,249.904 360.009,251.027 360.762,251.714C361.514,252.401 362.432,252.602 363.217,252.6C364.439,252.597 365.416,252.147 365.451,252.135L365.536,252.086C369.594,249.173 371.895,244.06 373.216,238.572C374.533,233.079 374.86,227.18 374.861,222.624C374.861,218.005 374.522,214.77 374.521,214.758L374.024,214.81L374.437,215.092C378.498,209.135 379.603,202.81 379.602,197.701C379.601,191.568 378.017,187.166 378.005,187.131L378.002,187.121C376.801,184.001 375.032,181.266 372.685,179.233C370.34,177.201 367.413,175.882 363.957,175.601C363.664,175.577 363.373,175.566 363.085,175.566C360.259,175.569 357.713,176.655 355.253,177.736C352.791,178.823 350.41,179.904 347.945,180.04L347.973,180.539L348.001,180.04C345.534,179.904 343.152,178.823 340.69,177.736C338.23,176.655 335.685,175.568 332.859,175.566C332.571,175.566 332.28,175.577 331.987,175.602C328.532,175.882 325.604,177.201 323.259,179.233C320.912,181.266 319.142,184.001 317.942,187.121L317.938,187.131C317.926,187.167 316.342,191.568 316.342,197.702C316.341,202.811 317.446,209.135 321.507,215.092L321.92,214.81L321.423,214.758C321.421,214.77 321.083,218.003 321.083,222.619C321.083,227.174 321.411,233.075 322.728,238.569C324.048,244.058 326.349,249.172 330.407,252.086L330.492,252.134C330.527,252.147 331.504,252.597 332.726,252.601C333.511,252.602 334.429,252.401 335.181,251.714C335.934,251.027 336.468,249.904 336.621,248.211L336.622,248.132C336.622,248.131 336.607,247.901 336.591,247.473C336.575,247.046 336.559,246.427 336.559,245.665C336.558,242.718 336.801,237.626 338.183,233.254C338.872,231.068 339.844,229.068 341.178,227.602C342.517,226.136 344.188,225.19 346.391,225.04C346.716,225.018 347.044,225.011 347.377,225.011C347.619,225.011 347.863,225.014 348.109,225.018L348.116,225.018L348.116,224.518L348.123,224.018C347.876,224.015 347.627,224.011 347.377,224.011C347.031,224.011 346.68,224.018 346.324,224.042C343.858,224.202 341.907,225.307 340.438,226.93C338.232,229.366 337.037,232.927 336.364,236.436C335.694,239.946 335.56,243.413 335.559,245.665C335.559,247.216 335.624,248.19 335.625,248.199L336.124,248.165L335.625,248.12C335.483,249.657 335.025,250.502 334.507,250.975C333.988,251.448 333.355,251.599 332.726,251.601C332.242,251.601 331.777,251.506 331.438,251.409C331.269,251.361 331.131,251.312 331.038,251.277L330.933,251.236L330.904,251.223L330.698,251.679L330.989,251.272C327.244,248.6 324.987,243.715 323.7,238.336C322.411,232.962 322.082,227.125 322.082,222.619C322.082,220.335 322.166,218.393 322.25,217.023C322.292,216.338 322.334,215.796 322.365,215.426C322.397,215.057 322.417,214.862 322.417,214.862C322.429,214.745 322.399,214.625 322.333,214.528C318.413,208.779 317.342,202.672 317.341,197.702C317.341,194.721 317.728,192.155 318.114,190.337C318.307,189.429 318.5,188.708 318.643,188.216C318.716,187.97 318.775,187.781 318.816,187.655L318.864,187.513L318.879,187.47L318.409,187.301L318.875,187.48C320.027,184.484 321.715,181.892 323.913,179.99C326.113,178.087 328.82,176.865 332.069,176.598C332.334,176.576 332.597,176.566 332.859,176.566C335.418,176.563 337.834,177.568 340.287,178.651C342.739,179.727 345.221,180.882 347.945,181.038L348.001,181.038C350.723,180.882 353.205,179.727 355.656,178.651C358.109,177.568 360.525,176.563 363.085,176.566C363.347,176.566 363.61,176.576 363.876,176.598C367.125,176.865 369.831,178.087 372.031,179.99C374.229,181.892 375.916,184.484 377.068,187.48L377.535,187.301L377.065,187.47C377.065,187.47 377.086,187.529 377.127,187.655C377.417,188.537 378.603,192.485 378.603,197.701C378.602,202.671 377.53,208.778 373.611,214.528C373.544,214.625 373.514,214.745 373.527,214.862C373.527,214.862 373.547,215.057 373.578,215.427C373.672,216.537 373.861,219.197 373.861,222.624C373.862,227.13 373.533,232.966 372.243,238.339C370.956,243.717 368.699,248.6 364.954,251.272L365.245,251.679L365.039,251.223L365.01,251.235C364.852,251.304 364.064,251.603 363.217,251.6C362.588,251.599 361.955,251.448 361.436,250.975C360.918,250.502 360.46,249.657 360.317,248.12L359.819,248.165L360.318,248.198C360.319,248.189 360.383,247.216 360.383,245.664C360.381,242.661 360.146,237.5 358.713,232.953C357.994,230.679 356.976,228.552 355.504,226.93C354.035,225.307 352.084,224.202 349.617,224.042L349.622,224.043C349.357,224.023 349.098,224.019 348.848,224.019L348.633,224.02L348.637,224.02C348.467,224.02 348.293,224.018 348.116,224.018L348.116,224.518L348.123,224.018L348.116,224.518Z" style="fill:rgb(133,17,86);fill-rule:nonzero;"/>
            </g>
            <g transform="matrix(0.841804,0,0,0.841804,-142.428,-129.447)">
                <path d="M344.464,180.34C344.472,180.343 346.418,181.034 348.995,181.727C351.574,182.419 354.773,183.117 357.348,183.119C358.235,183.119 359.051,183.037 359.758,182.827C360.461,182.617 361.073,182.27 361.476,181.713C361.637,181.489 361.586,181.177 361.363,181.015C361.138,180.854 360.826,180.904 360.665,181.128C360.438,181.445 360.044,181.697 359.471,181.868C358.902,182.039 358.171,182.12 357.348,182.119C354.949,182.122 351.789,181.445 349.254,180.761C347.985,180.42 346.869,180.078 346.072,179.823C345.673,179.695 345.354,179.588 345.135,179.514C344.915,179.439 344.799,179.398 344.799,179.398C344.538,179.305 344.252,179.441 344.16,179.702C344.068,179.962 344.204,180.248 344.464,180.34Z" style="fill:rgb(133,17,86);fill-rule:nonzero;"/>
            </g>
            <g transform="matrix(0.841804,0,0,0.841804,-142.428,-129.447)">
                <path d="M355.711,212.727L354.711,212.727C354.709,213.742 353.886,214.567 352.87,214.569L343.074,214.569C342.059,214.567 341.234,213.741 341.232,212.727L341.232,205.55C341.234,204.533 342.058,203.711 343.074,203.709L352.87,203.709C353.887,203.711 354.709,204.533 354.711,205.55L354.711,212.727L355.711,212.727L355.711,205.55C355.711,203.98 354.44,202.709 352.87,202.709L343.074,202.709C341.505,202.709 340.233,203.98 340.232,205.55L340.232,212.727C340.233,214.295 341.505,215.568 343.074,215.568L352.87,215.568C354.441,215.568 355.71,214.294 355.711,212.727Z" style="fill:rgb(133,17,86);fill-rule:nonzero;"/>
            </g>
            <g transform="matrix(0.841804,0,0,0.841804,-142.428,-129.447)">
                <path d="M350.397,202.548L350.397,205.808L345.547,205.808L345.547,202.548L341.487,202.548L341.487,208.633L354.455,208.633L354.455,202.548L350.397,202.548Z" style="fill:rgb(146,182,199);fill-rule:nonzero;"/>
            </g>
            <g transform="matrix(0.841804,0,0,0.841804,-142.428,-129.447)">
                <path d="M354.455,208.633L341.487,208.633L341.487,202.548L343.458,202.548L343.458,206.785L352.486,206.785L352.486,202.548L354.455,202.548L354.455,208.633Z" style="fill:rgb(112,158,179);fill-rule:nonzero;"/>
            </g>
            <g transform="matrix(0.841804,0,0,0.841804,-142.428,-129.447)">
                <path d="M345.547,215.728L345.547,212.468L350.397,212.468L350.397,215.728L354.455,215.728L354.455,209.643L341.487,209.643L341.487,215.728L345.547,215.728Z" style="fill:rgb(146,182,199);fill-rule:nonzero;"/>
            </g>
            <g transform="matrix(0.841804,0,0,0.841804,-142.428,-129.447)">
                <path d="M354.455,215.728L352.486,215.728L352.486,211.492L343.458,211.492L343.458,215.728L341.487,215.728L341.487,209.643L354.455,209.643L354.455,215.728Z" style="fill:rgb(112,158,179);fill-rule:nonzero;"/>
            </g>
            <g transform="matrix(0.841804,0,0,0.841804,-142.428,-129.447)">
                <path d="M311.011,209.637L384.933,209.637C385.209,209.637 385.433,209.414 385.433,209.137C385.433,208.861 385.209,208.637 384.933,208.637L311.011,208.637C310.734,208.637 310.511,208.861 310.511,209.137C310.511,209.414 310.734,209.637 311.011,209.637Z" style="fill:rgb(160,180,191);fill-rule:nonzero;"/>
            </g>
        </g>
    </g>
</svg>
