<?xml version="1.0" encoding="UTF-8" standalone="no"?>
<!DOCTYPE svg PUBLIC "-//W3C//DTD SVG 1.1//EN" "http://www.w3.org/Graphics/SVG/1.1/DTD/svg11.dtd">
<svg width="100%" height="100%" viewBox="0 0 100 100" version="1.1" xmlns="http://www.w3.org/2000/svg" xmlns:xlink="http://www.w3.org/1999/xlink" xml:space="preserve" xmlns:serif="http://www.serif.com/" style="fill-rule:evenodd;clip-rule:evenodd;stroke-linejoin:round;stroke-miterlimit:2;">
    <g>
        <g transform="matrix(0.841804,0,0,0.841804,-242.428,-21.5389)">
            <path d="M394.9,84.983C394.9,111.225 373.626,132.5 347.383,132.5C321.139,132.5 299.866,111.225 299.866,84.983C299.866,58.737 321.139,37.466 347.383,37.466C373.626,37.466 394.9,58.737 394.9,84.983Z" style="fill:rgb(115,186,206);fill-rule:nonzero;"/>
        </g>
        <g transform="matrix(0.841804,0,0,0.841804,-242.428,-21.5389)">
            <path d="M313.785,118.77C305.184,110.168 299.866,98.29 299.866,85.169L299.866,85.076C299.891,98.209 305.244,110.09 313.878,118.677L313.785,118.77Z" style="fill:rgb(174,206,217);fill-rule:nonzero;"/>
        </g>
        <g transform="matrix(0.841804,0,0,0.841804,-242.428,-21.5389)">
            <path d="M313.878,118.677C305.244,110.09 299.891,98.209 299.866,85.076C299.916,58.874 321.17,37.651 347.383,37.651C360.504,37.651 372.385,42.97 380.984,51.569L313.878,118.677Z" style="fill:rgb(80,170,190);fill-rule:nonzero;"/>
        </g>
        <g transform="matrix(0.841804,0,0,0.841804,-242.428,-21.5389)">
            <path d="M348.09,99.232C348.232,99.233 348.374,99.235 348.517,99.233C348.775,99.233 349.036,99.231 349.294,99.25C358.932,99.89 357.687,118.62 357.687,118.62C358.117,123.32 362.135,121.501 362.135,121.501C371.777,114.602 369.333,91.27 369.333,91.27C376.531,80.713 372.213,68.716 372.212,68.715C370.282,63.699 366.543,59.978 361.047,59.53C356.326,59.145 352.445,62.918 347.971,63.171C343.499,62.918 339.616,59.145 334.897,59.53C329.399,59.978 325.66,63.699 323.73,68.715C323.73,68.716 319.412,80.713 326.61,91.27C326.61,91.27 324.166,114.602 333.808,121.501C333.808,121.501 337.826,123.32 338.257,118.62C338.257,118.62 337.012,99.89 346.649,99.25C347.128,99.218 347.61,99.227 348.09,99.232Z" style="fill:white;fill-rule:nonzero;"/>
        </g>
        <g transform="matrix(0.841804,0,0,0.841804,-242.428,-21.5389)">
            <path d="M342.256,101.319C342.079,101.403 341.905,101.492 341.735,101.592C338.978,103.22 338.602,106.082 337.892,108.942C337.491,110.556 336.107,116.317 333.434,113.698C331.872,112.168 331.464,109.661 331.151,107.595C330.811,105.337 330.525,103.041 330.435,100.759C330.241,96.024 330.967,91.033 334.634,87.713C333.755,87.108 332.738,86.715 331.909,86.042C330.979,85.285 330.346,84.288 329.9,83.177C328.855,80.572 328.147,77.777 328.254,74.952C328.412,70.809 329.771,66.29 334.146,64.92C338.411,63.585 342.375,65.282 346.38,66.621C348.966,67.485 351.842,68.255 354.586,67.777C356.498,67.444 358.579,66.572 358.755,64.474C356.941,65.422 354.537,65.308 352.604,64.966C351.027,64.688 349.24,64.206 347.943,63.168C343.482,62.901 339.607,59.145 334.897,59.53C329.399,59.978 325.66,63.699 323.73,68.715C323.73,68.716 319.412,80.713 326.61,91.27C326.61,91.27 324.166,114.602 333.808,121.501C333.808,121.501 337.826,123.32 338.257,118.62C338.257,118.62 337.439,106.327 342.256,101.319Z" style="fill:rgb(206,231,243);fill-rule:nonzero;"/>
        </g>
        <g transform="matrix(0.841804,0,0,0.841804,-242.428,-21.5389)">
            <path d="M373.209,81.223C373.096,81.502 372.969,81.775 372.826,82.042C371.737,84.062 370.092,85.646 368.16,86.866C366.801,87.725 365.369,88.452 363.927,89.162C363.596,89.325 363.264,89.486 362.935,89.651C362.613,89.811 362.942,89.922 363.171,90.263C363.605,90.916 364.015,91.587 364.341,92.302C365.586,95.021 366.048,97.962 366.193,100.93C366.351,104.105 366.625,107.465 365.984,110.6C365.681,112.087 365.216,113.505 364.528,114.858C364.117,115.666 363.623,116.622 362.819,117.116C362.149,117.528 361.121,117.82 360.445,117.229C359.743,116.616 359.686,115.694 359.572,114.82C359.309,112.778 358.92,110.696 358.455,108.689C357.993,106.697 357.393,104.51 356.017,102.936C355.336,102.158 354.551,101.638 353.695,101.326C358.502,106.339 357.687,118.62 357.687,118.62C358.117,123.32 362.135,121.501 362.135,121.501C371.777,114.602 369.333,91.27 369.333,91.27C371.616,87.923 372.737,84.432 373.209,81.223Z" style="fill:rgb(206,231,243);fill-rule:nonzero;"/>
        </g>
        <g transform="matrix(0.841804,0,0,0.841804,-242.428,-21.5389)">
            <path d="M348.093,98.732L348.087,99.732C348.188,99.732 348.292,99.734 348.4,99.734L348.521,99.733L348.518,99.733L348.674,99.733C348.877,99.733 349.072,99.735 349.256,99.749L349.261,99.749C351.044,99.871 352.389,100.633 353.474,101.821C355.099,103.601 356.065,106.38 356.595,109.173C357.128,111.965 357.239,114.76 357.239,116.569C357.239,117.193 357.226,117.699 357.213,118.049C357.2,118.398 357.188,118.586 357.188,118.587L357.188,118.665C357.315,120.068 357.76,121.014 358.398,121.596C359.036,122.179 359.814,122.349 360.472,122.347C361.496,122.343 362.305,121.97 362.341,121.957L362.426,121.908C365.781,119.498 367.672,115.285 368.757,110.775C369.84,106.26 370.108,101.417 370.109,97.677C370.109,93.886 369.831,91.231 369.83,91.218L369.333,91.27L369.746,91.552C373.089,86.649 373.998,81.444 373.997,77.242C373.996,72.198 372.694,68.581 372.683,68.546L372.679,68.536C371.69,65.966 370.232,63.71 368.294,62.032C366.358,60.353 363.939,59.262 361.087,59.031C360.845,59.011 360.605,59.002 360.367,59.002C358.025,59.005 355.925,59.902 353.907,60.788C351.887,61.681 349.943,62.562 347.943,62.671L347.971,63.171L347.999,62.671C346,62.562 344.055,61.681 342.035,60.789C340.017,59.902 337.918,59.005 335.576,59.002C335.339,59.002 335.098,59.011 334.856,59.031C332.004,59.262 329.584,60.353 327.648,62.032C325.711,63.71 324.252,65.966 323.264,68.536L323.26,68.546C323.248,68.581 321.947,72.198 321.946,77.242C321.945,81.444 322.854,86.649 326.197,91.552L326.61,91.27L326.113,91.218C326.112,91.23 325.833,93.887 325.833,97.679C325.834,101.418 326.102,106.261 327.185,110.776C328.271,115.286 330.161,119.498 333.517,121.908L333.602,121.957C333.637,121.97 334.446,122.343 335.47,122.347C336.128,122.349 336.906,122.179 337.544,121.596C338.183,121.014 338.627,120.068 338.755,118.666L338.756,118.587C338.756,118.586 338.743,118.398 338.73,118.049C338.717,117.699 338.704,117.193 338.704,116.57C338.702,114.158 338.903,109.99 340.031,106.421C340.593,104.637 341.387,103.009 342.469,101.821C343.554,100.633 344.899,99.871 346.682,99.749C346.939,99.732 347.201,99.727 347.469,99.727C347.671,99.727 347.876,99.729 348.084,99.732L348.09,99.232L348.095,98.732C347.888,98.729 347.68,98.727 347.469,98.727C347.189,98.727 346.905,98.732 346.615,98.751C344.57,98.883 342.944,99.804 341.728,101.148C339.9,103.168 338.92,106.101 338.365,108.986C337.815,111.872 337.704,114.72 337.704,116.57C337.704,117.844 337.757,118.644 337.758,118.653L338.257,118.62L337.759,118.574C337.643,119.821 337.274,120.489 336.87,120.858C336.466,121.226 335.972,121.345 335.47,121.347C335.086,121.348 334.712,121.271 334.44,121.193C334.303,121.155 334.193,121.116 334.118,121.088L334.035,121.055L334.014,121.046L333.808,121.501L334.099,121.095C331.056,118.926 329.209,114.942 328.157,110.543C327.102,106.149 326.833,101.369 326.833,97.679C326.833,95.807 326.902,94.215 326.971,93.092C327.005,92.531 327.04,92.087 327.065,91.784C327.091,91.481 327.107,91.323 327.107,91.322C327.12,91.205 327.09,91.086 327.023,90.989C323.821,86.292 322.946,81.304 322.945,77.242C322.945,74.806 323.261,72.708 323.577,71.223C323.735,70.481 323.892,69.892 324.01,69.491C324.068,69.29 324.117,69.136 324.15,69.034L324.189,68.919L324.201,68.884L323.73,68.715L324.197,68.895C325.138,66.448 326.514,64.336 328.303,62.787C330.094,61.239 332.292,60.245 334.938,60.028C335.152,60.01 335.364,60.002 335.576,60.002C337.651,59.999 339.622,60.816 341.633,61.704C343.642,62.586 345.687,63.539 347.943,63.67L347.999,63.67C350.256,63.539 352.3,62.585 354.31,61.704C356.321,60.816 358.291,59.999 360.367,60.002C360.578,60.002 360.791,60.01 361.006,60.028C363.651,60.245 365.849,61.239 367.64,62.787C369.428,64.336 370.804,66.448 371.746,68.895L372.212,68.715L371.742,68.885L371.899,68.828L371.741,68.883L371.742,68.885L371.899,68.828L371.741,68.883C371.77,68.962 372.998,72.446 372.997,77.242C372.996,81.305 372.121,86.293 368.92,90.989C368.853,91.086 368.823,91.205 368.836,91.322C368.836,91.323 368.852,91.481 368.878,91.784C368.955,92.692 369.109,94.87 369.109,97.677C369.11,101.367 368.84,106.147 367.785,110.542C366.733,114.942 364.886,118.926 361.844,121.095L362.135,121.501L361.929,121.046L361.907,121.055C361.784,121.108 361.146,121.35 360.472,121.347C359.97,121.345 359.476,121.226 359.072,120.858C358.668,120.489 358.3,119.821 358.184,118.574L357.687,118.62L358.185,118.653C358.186,118.644 358.239,117.844 358.239,116.569C358.237,114.102 358.044,109.865 356.865,106.12C356.273,104.248 355.435,102.493 354.214,101.148C352.999,99.804 351.373,98.883 349.327,98.751L349.331,98.752C349.103,98.735 348.883,98.733 348.674,98.733L348.512,98.733L348.4,98.734C348.302,98.734 348.199,98.732 348.093,98.732Z" style="fill:rgb(133,17,86);fill-rule:nonzero;"/>
        </g>
        <g transform="matrix(0.841804,0,0,0.841804,-242.428,-21.5389)">
            <path d="M345.065,63.091C345.073,63.094 346.671,63.662 348.787,64.231C350.906,64.799 353.533,65.374 355.66,65.376C356.393,65.375 357.069,65.308 357.661,65.132C358.25,64.957 358.771,64.664 359.117,64.186C359.279,63.962 359.228,63.649 359.004,63.488C358.78,63.326 358.468,63.377 358.306,63.601C358.136,63.839 357.833,64.037 357.375,64.174C356.921,64.311 356.329,64.377 355.66,64.376C353.708,64.378 351.121,63.825 349.047,63.265C348.008,62.986 347.094,62.706 346.441,62.497C346.115,62.392 345.854,62.305 345.674,62.244C345.495,62.183 345.4,62.149 345.4,62.149C345.14,62.057 344.854,62.193 344.762,62.453C344.669,62.713 344.805,62.999 345.066,63.092L345.065,63.091Z" style="fill:rgb(133,17,86);fill-rule:nonzero;"/>
        </g>
        <g transform="matrix(0.841804,0,0,0.841804,-242.428,-21.5389)">
            <path d="M375.065,53.288C366.969,53.969 366.415,54.522 365.732,62.62C365.051,54.522 364.498,53.969 356.398,53.288C364.498,52.606 365.051,52.052 365.732,43.954C366.415,52.052 366.969,52.606 375.065,53.288Z" style="fill:white;fill-rule:nonzero;"/>
        </g>
        <g transform="matrix(0.841804,0,0,0.841804,-242.428,-21.5389)">
            <path d="M324.451,91.203C316.353,91.885 315.8,92.437 315.118,100.535C314.435,92.437 313.884,91.885 305.785,91.203C313.884,90.52 314.435,89.969 315.118,81.871C315.8,89.969 316.353,90.52 324.451,91.203Z" style="fill:white;fill-rule:nonzero;"/>
        </g>
    </g>
</svg>
