<?xml version="1.0" encoding="UTF-8" standalone="no"?>
<!DOCTYPE svg PUBLIC "-//W3C//DTD SVG 1.1//EN" "http://www.w3.org/Graphics/SVG/1.1/DTD/svg11.dtd">
<svg width="100%" height="100%" viewBox="0 0 100 100" version="1.1" xmlns="http://www.w3.org/2000/svg" xmlns:xlink="http://www.w3.org/1999/xlink" xml:space="preserve" xmlns:serif="http://www.serif.com/" style="fill-rule:evenodd;clip-rule:evenodd;stroke-linejoin:round;stroke-miterlimit:2;">
    <g transform="matrix(1,0,0,1,-100,-100)">
        <g>
            <g transform="matrix(0.841822,0,0,0.841786,85.4819,-29.4426)">
                <path d="M76.639,165.653C50.398,165.653 29.125,186.926 29.125,213.17C29.125,226.29 34.441,238.169 43.041,246.769L110.241,179.571C101.643,170.971 89.763,165.653 76.639,165.653Z" style="fill:rgb(0,147,113);fill-rule:nonzero;"/>
            </g>
            <g transform="matrix(0.841822,0,0,0.841786,85.4819,-29.4426)">
                <path d="M124.157,213.17C124.157,239.411 102.885,260.687 76.642,260.687C50.402,260.687 29.125,239.411 29.125,213.17C29.125,186.926 50.402,165.653 76.642,165.653C102.885,165.653 124.157,186.926 124.157,213.17Z" style="fill:rgb(214,141,148);fill-rule:nonzero;"/>
            </g>
            <g transform="matrix(0.841822,0,0,0.841786,85.4819,-29.4426)">
                <path d="M29.125,213.168C29.125,186.924 50.398,165.651 76.639,165.651C89.763,165.651 101.643,170.971 110.241,179.569C101.642,170.971 89.763,165.653 76.642,165.653L76.639,165.653C50.398,165.653 29.125,186.926 29.125,213.17" style="fill:rgb(215,180,181);fill-rule:nonzero;"/>
            </g>
            <g transform="matrix(0.841822,0,0,0.841786,85.4819,-29.4426)">
                <path d="M43.041,246.769C42.68,246.408 42.325,246.041 41.976,245.668C35.231,238.478 30.701,229.189 29.465,218.887C30.765,229.723 35.711,239.437 43.042,246.768L43.041,246.769ZM29.465,218.887C29.464,218.88 29.463,218.874 29.463,218.867C29.463,218.873 29.464,218.881 29.465,218.887ZM29.46,218.848L29.46,218.847C29.46,218.849 29.46,218.847 29.46,218.848ZM29.125,213.168C29.125,186.926 50.398,165.653 76.639,165.653L76.641,165.653C50.402,165.653 29.125,186.926 29.125,213.17" style="fill:rgb(2,113,82);fill-rule:nonzero;"/>
            </g>
            <g transform="matrix(0.841822,0,0,0.841786,85.4819,-29.4426)">
                <path d="M43.042,246.768C35.711,239.437 30.765,229.723 29.465,218.887C29.464,218.881 29.463,218.873 29.463,218.867C29.462,218.861 29.461,218.855 29.46,218.848C29.46,218.847 29.46,218.849 29.46,218.847C29.238,216.985 29.125,215.09 29.125,213.168C29.125,186.926 50.402,165.653 76.642,165.653C89.763,165.653 101.642,170.971 110.24,179.57L82.166,207.643L60.145,207.643L60.145,218.502L71.308,218.502L68.516,218.502L68.516,221.294L43.041,246.769" style="fill:rgb(190,103,111);fill-rule:nonzero;"/>
            </g>
            <g transform="matrix(0.841822,0,0,0.841786,85.4819,-29.4426)">
                <rect x="60.145" y="207.643" width="32.992" height="10.859" style="fill:rgb(192,217,230);fill-rule:nonzero;"/>
            </g>
            <g transform="matrix(0.841822,0,0,0.841786,85.4819,-29.4426)">
                <path d="M84.846,229.867L80.85,228.257C80.516,228.121 80.234,227.569 80.168,227.282C80.088,226.933 80.1,226.509 80.282,226.184C80.511,225.77 81.033,225.565 81.526,225.417C82.313,225.182 83.182,225.075 83.811,224.585C84.166,224.307 84.527,223.926 84.716,223.553C84.922,223.143 84.767,222.77 84.767,222.366L84.767,218.502L68.516,218.502L68.516,222.366C68.516,222.77 68.359,223.143 68.566,223.553C68.753,223.926 69.114,224.307 69.47,224.585C70.099,225.075 70.968,225.182 71.755,225.417C72.249,225.565 72.77,225.77 73,226.184C73.181,226.509 73.193,226.933 73.114,227.282C73.048,227.569 72.765,228.121 72.431,228.257L68.436,229.867C67.605,230.201 67.391,231.172 67.664,231.818C67.799,232.137 68.067,232.539 68.384,232.764C68.762,233.032 69.4,233.144 69.859,233.293C70.356,233.454 70.843,233.635 71.337,233.801C71.713,233.926 72.084,234.066 72.463,234.186C73.045,234.368 73.355,234.493 73.644,234.977C73.947,235.481 74.044,236.067 73.988,236.624C73.906,237.446 73.278,238.079 72.441,238.511C71.459,239.017 70.203,239.476 69.407,240.179C68.753,240.755 68.629,241.78 69.136,242.441C69.829,243.349 71.646,243.402 72.675,243.963C73.24,244.271 73.699,244.827 73.786,245.385C73.857,245.829 73.774,246.215 73.545,246.622C73.169,247.294 72.269,247.508 71.511,247.786C70.428,248.184 69.164,248.333 69.047,249.485C68.958,250.354 69.746,251.013 70.5,251.524C71.199,251.996 71.932,252.433 72.695,252.839C73.43,253.232 74.159,253.634 74.901,254.015C75.346,254.244 75.892,254.554 76.444,254.664L76.444,254.711L76.641,254.687L76.838,254.711L76.838,254.664C77.389,254.554 77.936,254.244 78.38,254.015C79.124,253.634 79.851,253.232 80.587,252.839C81.349,252.433 82.084,251.996 82.783,251.524C83.537,251.013 84.323,250.354 84.234,249.485C84.118,248.333 82.853,248.184 81.77,247.786C81.013,247.508 80.114,247.294 79.736,246.622C79.509,246.215 79.425,245.829 79.496,245.385C79.583,244.827 80.041,244.271 80.607,243.963C81.635,243.402 83.453,243.349 84.146,242.441C84.652,241.78 84.527,240.755 83.875,240.179C83.078,239.476 81.823,239.017 80.84,238.511C80.003,238.079 79.375,237.446 79.294,236.624C79.238,236.067 79.334,235.481 79.637,234.977C79.927,234.493 80.237,234.368 80.819,234.186C81.198,234.066 81.568,233.926 81.944,233.801C82.438,233.635 82.925,233.454 83.422,233.293C83.881,233.144 84.519,233.032 84.897,232.764C85.214,232.539 85.481,232.137 85.618,231.818C85.891,231.172 85.677,230.201 84.846,229.867Z" style="fill:rgb(146,182,199);fill-rule:nonzero;"/>
            </g>
            <g transform="matrix(0.841822,0,0,0.841786,85.4819,-29.4426)">
                <path d="M76.838,254.711L76.641,254.687L76.444,254.711L76.444,254.664C75.892,254.554 75.346,254.244 74.901,254.015C74.159,253.634 73.43,253.232 72.695,252.839C71.932,252.433 71.199,251.996 70.5,251.524C69.784,251.039 69.038,250.42 69.04,249.615C69.041,249.572 69.043,249.529 69.047,249.485C69.164,248.333 70.428,248.184 71.511,247.786C72.269,247.508 73.169,247.294 73.545,246.622C73.72,246.311 73.81,246.011 73.811,245.689C73.811,245.59 73.802,245.489 73.786,245.385C73.699,244.827 73.24,244.271 72.675,243.963C71.646,243.402 69.829,243.349 69.136,242.441C68.926,242.167 68.825,241.831 68.824,241.49C68.823,241.008 69.024,240.517 69.407,240.179C70.203,239.476 71.459,239.017 72.441,238.511C73.278,238.079 73.906,237.446 73.988,236.624C73.998,236.524 74.004,236.423 74.003,236.322C74.003,235.859 73.893,235.39 73.644,234.977C73.355,234.493 73.045,234.368 72.463,234.186C72.084,234.066 71.713,233.926 71.337,233.801C70.843,233.635 70.356,233.454 69.859,233.293C69.4,233.144 68.762,233.032 68.384,232.764C68.067,232.539 67.799,232.137 67.664,231.818C67.59,231.644 67.552,231.446 67.552,231.244C67.551,230.695 67.829,230.111 68.436,229.867L72.431,228.257C72.765,228.121 73.048,227.569 73.114,227.282C73.144,227.151 73.161,227.009 73.161,226.867C73.16,226.629 73.113,226.387 73,226.184C72.77,225.77 72.249,225.565 71.755,225.417C70.968,225.182 70.099,225.075 69.47,224.585C69.114,224.307 68.753,223.926 68.566,223.553C68.483,223.39 68.459,223.232 68.459,223.076C68.459,222.841 68.516,222.609 68.516,222.366L68.516,218.502L76.854,218.502L76.854,254.658L76.838,254.664L76.838,254.711Z" style="fill:rgb(112,140,155);fill-rule:nonzero;"/>
            </g>
            <g transform="matrix(0.841822,0,0,0.841786,85.4819,-29.4426)">
                <path d="M84.846,229.867L85.033,229.404L81.037,227.793L80.968,227.736C80.836,227.616 80.671,227.274 80.655,227.169C80.633,227.076 80.621,226.971 80.621,226.868C80.62,226.694 80.658,226.534 80.718,226.429L80.72,226.426C80.771,226.331 80.876,226.232 81.046,226.139C81.215,226.045 81.438,225.965 81.669,225.896C82.397,225.668 83.33,225.579 84.118,224.98C84.518,224.663 84.917,224.254 85.162,223.779L85.163,223.777C85.287,223.533 85.324,223.283 85.322,223.076C85.318,222.761 85.263,222.531 85.266,222.367L85.266,218.502C85.266,218.369 85.215,218.243 85.12,218.149C85.026,218.054 84.9,218.002 84.767,218.002L68.516,218.002C68.384,218.002 68.256,218.055 68.162,218.149C68.069,218.242 68.016,218.371 68.016,218.502L68.016,222.367C68.02,222.53 67.963,222.76 67.959,223.078C67.957,223.284 67.995,223.535 68.12,223.779C68.363,224.254 68.762,224.663 69.161,224.979C69.95,225.579 70.885,225.668 71.612,225.896C71.844,225.965 72.067,226.045 72.235,226.139C72.406,226.232 72.511,226.331 72.562,226.426C72.623,226.533 72.66,226.694 72.66,226.867C72.66,226.969 72.647,227.076 72.625,227.174L72.626,227.17C72.614,227.235 72.541,227.419 72.45,227.559L72.314,227.736L72.243,227.794L68.249,229.404C67.841,229.566 67.531,229.855 67.336,230.185C67.14,230.515 67.051,230.883 67.051,231.242C67.051,231.507 67.1,231.77 67.203,232.013C67.376,232.407 67.662,232.857 68.095,233.172C68.366,233.362 68.662,233.464 68.946,233.552C69.229,233.637 69.504,233.703 69.705,233.769C70.189,233.926 70.674,234.106 71.178,234.275C71.543,234.396 71.916,234.537 72.312,234.662C72.599,234.752 72.784,234.821 72.902,234.895C73.019,234.969 73.098,235.042 73.215,235.233C73.412,235.56 73.503,235.939 73.503,236.325L73.49,236.579L73.491,236.574C73.46,236.87 73.337,237.133 73.119,237.387C72.902,237.64 72.588,237.873 72.212,238.067C71.271,238.558 69.986,239.01 69.076,239.804C68.579,240.244 68.324,240.868 68.324,241.487C68.323,241.926 68.454,242.374 68.739,242.745C69.224,243.361 69.951,243.602 70.638,243.812C71.33,244.012 72.023,244.172 72.436,244.402C72.885,244.638 73.25,245.118 73.292,245.462L73.31,245.686C73.309,245.915 73.252,246.118 73.109,246.379C72.997,246.581 72.781,246.748 72.459,246.899C72.14,247.05 71.738,247.171 71.339,247.317C70.836,247.504 70.239,247.638 69.695,247.905C69.423,248.04 69.158,248.214 68.945,248.469C68.731,248.723 68.586,249.058 68.55,249.434L68.54,249.619C68.541,250.182 68.804,250.653 69.125,251.02C69.45,251.39 69.847,251.684 70.219,251.938C70.935,252.421 71.683,252.867 72.46,253.28C73.19,253.67 73.921,254.074 74.672,254.46C75.106,254.68 75.683,255.019 76.346,255.155L76.444,254.664L75.944,254.664L75.944,254.711C75.944,254.854 76.006,254.991 76.113,255.086C76.22,255.18 76.363,255.225 76.505,255.207L76.64,255.19L76.777,255.207C76.918,255.225 77.062,255.18 77.169,255.086C77.276,254.991 77.338,254.854 77.338,254.711L77.338,254.664L76.838,254.664L76.937,255.155C77.598,255.019 78.175,254.68 78.61,254.459C79.361,254.074 80.091,253.67 80.823,253.28C81.597,252.867 82.347,252.422 83.063,251.938C83.435,251.684 83.832,251.39 84.156,251.019C84.478,250.653 84.741,250.181 84.741,249.618L84.732,249.441L84.732,249.434C84.696,249.057 84.55,248.722 84.336,248.469C84.013,248.087 83.588,247.885 83.17,247.727C82.75,247.57 82.319,247.456 81.942,247.317C81.543,247.171 81.142,247.05 80.823,246.899C80.501,246.748 80.284,246.58 80.171,246.377C80.029,246.118 79.972,245.913 79.97,245.684L79.989,245.467L79.99,245.462C80.032,245.118 80.396,244.638 80.846,244.402C81.259,244.172 81.951,244.012 82.643,243.812C83.331,243.602 84.058,243.361 84.544,242.744C84.827,242.373 84.957,241.927 84.957,241.488C84.956,240.868 84.702,240.245 84.206,239.804C83.294,239.01 82.011,238.558 81.069,238.066C80.694,237.873 80.379,237.64 80.162,237.387C79.944,237.133 79.821,236.87 79.791,236.575L79.778,236.324C79.778,235.938 79.868,235.56 80.065,235.236L80.066,235.234C80.183,235.042 80.263,234.969 80.38,234.895C80.498,234.821 80.683,234.752 80.969,234.663C81.366,234.537 81.738,234.396 82.102,234.275C82.607,234.106 83.093,233.926 83.576,233.769C83.777,233.703 84.052,233.637 84.335,233.552C84.619,233.464 84.915,233.362 85.187,233.171C85.619,232.857 85.904,232.406 86.077,232.014L86.078,232.012C86.181,231.769 86.229,231.506 86.229,231.241C86.229,230.883 86.14,230.515 85.945,230.184C85.751,229.855 85.44,229.566 85.033,229.403L84.846,229.867L84.66,230.331C84.857,230.412 84.989,230.536 85.085,230.695C85.18,230.854 85.23,231.051 85.23,231.241C85.23,231.382 85.202,231.517 85.157,231.623L85.158,231.621C85.058,231.868 84.809,232.222 84.608,232.356C84.501,232.435 84.289,232.522 84.045,232.595C83.8,232.669 83.526,232.734 83.268,232.818C82.758,232.983 82.269,233.164 81.784,233.327C81.397,233.456 81.03,233.595 80.668,233.709C80.373,233.803 80.112,233.887 79.857,234.042C79.601,234.197 79.38,234.428 79.208,234.72L79.209,234.718C78.905,235.221 78.778,235.783 78.778,236.324C78.778,236.443 78.784,236.559 78.796,236.674C78.847,237.2 79.079,237.665 79.405,238.04C79.732,238.418 80.15,238.717 80.611,238.955C81.635,239.476 82.861,239.941 83.543,240.554C83.809,240.787 83.958,241.144 83.957,241.488C83.957,241.732 83.885,241.959 83.749,242.137C83.541,242.428 83.012,242.668 82.361,242.852C81.714,243.046 80.983,243.193 80.367,243.524C79.687,243.903 79.133,244.537 79.002,245.308L79.496,245.385L79.002,245.303C78.981,245.432 78.97,245.56 78.971,245.684C78.969,246.103 79.093,246.5 79.299,246.866C79.565,247.336 79.987,247.611 80.398,247.804C80.812,247.998 81.239,248.123 81.597,248.256C82.178,248.466 82.754,248.605 83.142,248.801C83.337,248.897 83.478,249 83.568,249.11C83.658,249.221 83.715,249.336 83.737,249.535L84.234,249.485L83.736,249.528L83.741,249.618C83.741,249.859 83.632,250.098 83.403,250.362C83.177,250.622 82.845,250.879 82.502,251.11C81.82,251.571 81.1,251.999 80.352,252.398C79.611,252.793 78.886,253.194 78.152,253.57C77.697,253.808 77.18,254.089 76.74,254.174C76.506,254.221 76.338,254.426 76.338,254.664L76.338,254.711L76.838,254.711L76.9,254.215L76.702,254.191L76.58,254.191L76.382,254.215L76.444,254.711L76.944,254.711L76.944,254.664C76.944,254.426 76.776,254.221 76.542,254.174C76.1,254.089 75.585,253.809 75.13,253.57C74.396,253.194 73.67,252.793 72.93,252.398C72.181,251.999 71.463,251.571 70.779,251.109C70.437,250.879 70.104,250.622 69.878,250.362C69.649,250.098 69.54,249.859 69.54,249.619L69.545,249.536C69.567,249.336 69.623,249.221 69.713,249.11C69.846,248.946 70.105,248.795 70.462,248.663C70.816,248.529 71.248,248.415 71.683,248.256C72.042,248.123 72.469,247.998 72.884,247.804C73.294,247.611 73.717,247.336 73.981,246.867C74.188,246.501 74.311,246.105 74.31,245.686C74.31,245.561 74.3,245.434 74.279,245.307C74.147,244.537 73.594,243.903 72.915,243.524C72.299,243.193 71.568,243.046 70.921,242.852C70.269,242.668 69.741,242.428 69.533,242.137C69.395,241.958 69.324,241.731 69.323,241.487C69.323,241.144 69.471,240.787 69.738,240.554C70.42,239.941 71.647,239.476 72.67,238.955C73.132,238.717 73.55,238.418 73.876,238.04C74.202,237.665 74.434,237.2 74.486,236.674L74.486,236.67C74.496,236.559 74.503,236.444 74.503,236.325C74.503,235.783 74.375,235.222 74.072,234.719C73.901,234.428 73.681,234.197 73.425,234.042C73.169,233.887 72.909,233.803 72.613,233.709C72.252,233.595 71.883,233.456 71.495,233.327C71.012,233.164 70.523,232.983 70.014,232.818C69.755,232.734 69.481,232.669 69.236,232.595C68.992,232.522 68.78,232.435 68.673,232.356C68.471,232.222 68.222,231.867 68.124,231.622C68.078,231.516 68.051,231.382 68.051,231.242C68.051,231.052 68.101,230.854 68.196,230.696C68.292,230.536 68.424,230.412 68.622,230.331L72.618,228.721C72.956,228.574 73.14,228.328 73.296,228.093C73.446,227.851 73.548,227.615 73.601,227.393L73.602,227.389C73.638,227.226 73.66,227.05 73.66,226.867C73.659,226.565 73.603,226.241 73.436,225.94C73.259,225.622 72.988,225.412 72.717,225.262C72.444,225.113 72.16,225.017 71.898,224.938C71.052,224.695 70.247,224.572 69.777,224.191C69.466,223.951 69.144,223.598 69.012,223.328C68.971,223.244 68.96,223.182 68.959,223.078C68.954,222.924 69.012,222.689 69.016,222.367L69.016,219.002L84.266,219.002L84.267,222.367C84.27,222.686 84.326,222.92 84.323,223.076C84.321,223.181 84.309,223.246 84.269,223.329L84.27,223.327C84.137,223.598 83.814,223.951 83.503,224.191C83.034,224.572 82.229,224.695 81.383,224.938C81.121,225.017 80.837,225.113 80.564,225.262C80.293,225.412 80.022,225.622 79.845,225.942L79.846,225.938C79.678,226.24 79.621,226.565 79.621,226.868C79.621,227.049 79.642,227.226 79.68,227.393C79.733,227.615 79.835,227.851 79.986,228.093C80.141,228.328 80.325,228.574 80.662,228.72L84.659,230.331L84.846,229.867Z" style="fill:rgb(133,17,86);fill-rule:nonzero;"/>
            </g>
            <g transform="matrix(0.841822,0,0,0.841786,85.4819,-29.4426)">
                <rect x="60.145" y="207.643" width="12.245" height="10.859" style="fill:rgb(146,182,199);fill-rule:nonzero;"/>
            </g>
            <g transform="matrix(0.841822,0,0,0.841786,85.4819,-29.4426)">
                <path d="M93.137,218.502L93.137,218.002L60.644,218.002L60.644,208.143L92.637,208.143L92.637,218.502L93.137,218.502L93.137,218.002L93.137,218.502L93.637,218.502L93.637,207.643C93.637,207.51 93.585,207.384 93.49,207.29C93.396,207.195 93.27,207.143 93.137,207.143L60.145,207.143C60.013,207.143 59.884,207.197 59.791,207.29C59.698,207.383 59.645,207.512 59.645,207.643L59.645,218.502C59.645,218.636 59.697,218.761 59.791,218.856C59.885,218.95 60.011,219.002 60.145,219.002L93.137,219.002C93.27,219.002 93.396,218.95 93.49,218.856C93.585,218.761 93.637,218.636 93.637,218.502L93.137,218.502Z" style="fill:rgb(133,17,86);fill-rule:nonzero;"/>
            </g>
            <g transform="matrix(0.841822,0,0,0.841786,85.4819,-29.4426)">
                <path d="M54.362,208.263C46.855,197.252 51.36,184.74 51.36,184.74C53.372,179.509 57.272,175.628 63.005,175.16C67.927,174.759 71.976,178.695 76.641,178.957C81.305,178.695 85.354,174.759 90.276,175.16C96.01,175.628 99.91,179.509 101.922,184.74C101.922,184.74 106.427,197.252 98.919,208.263C98.919,208.263 79.335,217.032 54.362,208.263Z" style="fill:rgb(240,233,219);fill-rule:nonzero;"/>
            </g>
            <g transform="matrix(0.841822,0,0,0.841786,85.4819,-29.4426)">
                <path d="M54.288,209.127C55.805,209.848 57.381,210.448 58.998,210.936C59.632,208.533 60.783,206.316 62.731,204.552C61.813,203.923 60.753,203.512 59.889,202.81C58.918,202.021 58.257,200.982 57.793,199.823C56.705,197.106 55.966,194.191 56.077,191.245C56.242,186.924 57.659,182.209 62.221,180.782C66.669,179.389 70.803,181.158 74.98,182.556C77.677,183.457 80.677,184.259 83.538,183.761C85.534,183.413 87.703,182.504 87.887,180.317C85.996,181.305 83.489,181.187 81.471,180.829C79.828,180.538 77.964,180.037 76.611,178.954C71.959,178.676 67.917,174.76 63.005,175.16C57.272,175.628 53.372,179.509 51.36,184.74C51.36,184.74 46.855,197.252 54.362,208.263C54.362,208.263 54.33,208.579 54.288,209.127Z" style="fill:rgb(238,205,203);fill-rule:nonzero;"/>
            </g>
            <g transform="matrix(0.841822,0,0,0.841786,85.4819,-29.4426)">
                <path d="M93.712,209.338C93.917,209.783 94.094,210.237 94.26,210.693C95.857,210.251 97.445,209.739 98.995,209.14C98.951,208.584 98.919,208.263 98.919,208.263C101.3,204.772 102.471,201.132 102.962,197.785C102.844,198.075 102.712,198.36 102.563,198.638C101.427,200.745 99.71,202.397 97.696,203.671C96.277,204.565 94.785,205.324 93.281,206.064C92.936,206.235 92.59,206.403 92.246,206.574C91.911,206.741 92.253,206.856 92.493,207.213C92.945,207.893 93.371,208.594 93.712,209.338Z" style="fill:rgb(238,205,203);fill-rule:nonzero;"/>
            </g>
            <g transform="matrix(0.841822,0,0,0.841786,85.4819,-29.4426)">
                <path d="M54.362,208.263L54.775,207.981C51.433,203.08 50.52,197.874 50.519,193.635C50.519,191.092 50.849,188.902 51.179,187.351C51.343,186.576 51.508,185.961 51.63,185.542C51.691,185.333 51.742,185.172 51.777,185.065C51.812,184.958 51.83,184.909 51.83,184.909L51.36,184.74L51.826,184.919C52.809,182.365 54.245,180.16 56.114,178.542C57.985,176.924 60.282,175.886 63.046,175.659C63.271,175.64 63.494,175.632 63.715,175.631C65.885,175.629 67.941,176.482 70.039,177.408C72.135,178.328 74.265,179.321 76.613,179.456L76.669,179.456C79.016,179.321 81.146,178.328 83.241,177.408C85.339,176.482 87.396,175.629 89.566,175.631C89.788,175.631 90.01,175.64 90.235,175.659C92.999,175.886 95.297,176.924 97.167,178.542C99.036,180.16 100.473,182.365 101.456,184.919L101.922,184.74L101.452,184.909L101.464,184.945C101.601,185.339 102.763,188.867 102.762,193.634C102.761,197.873 101.847,203.08 98.506,207.981L98.919,208.263L98.719,207.805L98.615,207.849C97.549,208.297 88.38,211.977 76.103,211.976C69.554,211.976 62.124,210.931 54.553,207.801L54.362,208.263L54.775,207.981L54.362,208.263L54.171,208.725C61.884,211.914 69.449,212.976 76.103,212.976C89.412,212.974 99.081,208.736 99.12,208.721L99.333,208.544C102.815,203.436 103.763,198.012 103.762,193.634C103.761,188.376 102.404,184.605 102.393,184.57L102.389,184.56C101.359,181.883 99.839,179.533 97.822,177.786C95.806,176.038 93.287,174.903 90.317,174.662C90.064,174.641 89.814,174.631 89.566,174.631C87.129,174.634 84.943,175.569 82.838,176.493C80.732,177.423 78.703,178.343 76.613,178.458L76.641,178.957L76.669,178.458C74.577,178.343 72.548,177.423 70.442,176.493C68.337,175.569 66.151,174.634 63.715,174.632C63.467,174.631 63.217,174.641 62.964,174.662C59.994,174.903 57.475,176.038 55.46,177.786C53.442,179.533 51.923,181.883 50.893,184.56L50.889,184.57C50.878,184.605 49.52,188.376 49.519,193.635C49.518,198.013 50.466,203.436 53.949,208.545C54.003,208.625 54.08,208.688 54.171,208.725L54.362,208.263Z" style="fill:rgb(133,17,86);fill-rule:nonzero;"/>
            </g>
            <g transform="matrix(0.841822,0,0,0.841786,85.4819,-29.4426)">
                <path d="M73.617,178.855C73.625,178.857 75.291,179.449 77.497,180.043C79.707,180.635 82.445,181.233 84.66,181.236C85.422,181.235 86.126,181.165 86.74,180.982C87.35,180.8 87.89,180.497 88.246,180.003C88.408,179.779 88.357,179.467 88.133,179.306C87.909,179.144 87.596,179.195 87.435,179.419C87.254,179.672 86.934,179.881 86.454,180.024C85.977,180.167 85.359,180.236 84.66,180.236C82.621,180.238 79.922,179.661 77.757,179.077C76.673,178.785 75.72,178.494 75.038,178.275C74.698,178.166 74.425,178.075 74.238,178.011C74.051,177.948 73.952,177.912 73.952,177.912C73.692,177.82 73.406,177.956 73.314,178.216C73.221,178.476 73.357,178.762 73.617,178.855Z" style="fill:rgb(133,17,86);fill-rule:nonzero;"/>
            </g>
        </g>
    </g>
</svg>
