<?xml version="1.0" encoding="UTF-8" standalone="no"?>
<!DOCTYPE svg PUBLIC "-//W3C//DTD SVG 1.1//EN" "http://www.w3.org/Graphics/SVG/1.1/DTD/svg11.dtd">
<svg width="100%" height="100%" viewBox="0 0 100 100" version="1.1" xmlns="http://www.w3.org/2000/svg" xmlns:xlink="http://www.w3.org/1999/xlink" xml:space="preserve" xmlns:serif="http://www.serif.com/" style="fill-rule:evenodd;clip-rule:evenodd;stroke-linejoin:round;stroke-miterlimit:2;">
    <g transform="matrix(1,0,0,1,-200,0)">
        <g transform="matrix(0.202031,0,0,0.202031,219.695,19.6955)">
            <g transform="matrix(4.16667,0,0,4.16667,-1302.33,-1264.38)">
                <path d="M396.076,339.45C396.076,365.695 374.803,386.968 348.559,386.968C322.314,386.968 301.041,365.695 301.041,339.45C301.041,313.208 322.314,291.933 348.559,291.933C374.803,291.933 396.076,313.208 396.076,339.45Z" style="fill:rgb(110,205,223);fill-rule:nonzero;"/>
            </g>
            <g transform="matrix(4.16667,0,0,4.16667,-1302.33,-1264.38)">
                <path d="M301.041,339.45C301.041,313.355 322.073,292.177 348.107,291.935C322.071,292.177 301.041,313.359 301.041,339.45ZM382.16,305.851C373.653,297.345 361.935,292.048 348.981,291.935C361.935,292.048 373.652,297.344 382.16,305.851Z" style="fill:rgb(176,217,226);fill-rule:nonzero;"/>
            </g>
            <g transform="matrix(4.16667,0,0,4.16667,-1302.33,-1264.38)">
                <path d="M314.958,373.05C306.359,364.45 301.041,352.572 301.041,339.45C301.041,313.359 322.071,292.177 348.107,291.935C348.257,291.934 348.408,291.933 348.559,291.933C348.7,291.933 348.84,291.934 348.981,291.935C361.935,292.048 373.653,297.345 382.16,305.851L369.624,318.386C369.064,317.93 368.368,317.56 367.633,317.56C367.597,317.56 367.562,317.561 367.527,317.563C367.038,317.586 366.706,317.891 366.294,318.11C365.994,318.269 365.689,318.341 365.389,318.341C364.914,318.341 364.449,318.16 364.028,317.856C363.741,317.646 363.42,317.529 363.085,317.466C362.802,317.413 362.509,317.398 362.217,317.398C361.887,317.398 361.558,317.417 361.247,317.422C360.525,317.436 359.788,317.382 359.089,317.602C358.239,317.87 357.473,318.356 356.737,318.848C356.206,319.205 355.614,319.703 355.612,320.339C355.612,320.468 355.636,320.603 355.69,320.744C355.287,320.911 354.889,321.085 354.494,321.258C352.589,322.101 350.757,322.93 348.878,323.039C346.998,322.93 345.167,322.101 343.261,321.258C341.347,320.418 339.353,319.565 337.126,319.562L337.122,319.562C336.898,319.562 336.67,319.571 336.441,319.59C333.733,319.809 331.433,320.846 329.595,322.441C327.754,324.035 326.369,326.177 325.431,328.617L325.427,328.627C325.416,328.658 324.398,331.486 324.209,335.585C323.896,335.676 323.625,335.785 323.41,335.914C322.358,336.559 321.65,337.691 321.399,338.849C321.336,339.156 321.225,339.524 321.223,339.958L321.231,340.149C321.278,340.642 321.262,341.138 321.392,341.656C321.516,342.175 321.858,342.703 322.477,343.049C322.882,343.283 323.123,343.54 323.278,343.821C323.432,344.102 323.502,344.424 323.503,344.803C323.503,345.126 323.45,345.487 323.354,345.872C323.221,346.418 323.024,347.118 323.022,347.842C323.021,348.393 323.146,348.989 323.557,349.48C323.954,349.951 324.453,350.192 324.882,350.407C325.317,350.621 325.683,350.812 325.918,351.076C326.149,351.337 326.192,351.502 326.196,351.651C326.197,351.797 326.135,351.979 325.996,352.202C325.86,352.424 325.654,352.672 325.435,352.937C324.877,353.634 324.629,354.64 324.618,355.453L324.619,355.494C324.653,357.178 325.761,358.717 326.983,359.642C327.251,359.842 327.546,360.017 327.866,360.142L314.958,373.05Z" style="fill:rgb(59,195,213);fill-rule:nonzero;"/>
            </g>
            <g transform="matrix(4.16667,0,0,4.16667,-1302.33,-1264.38)">
                <path d="M348.989,357.725C349.124,357.726 349.259,357.727 349.394,357.727C349.64,357.726 349.886,357.725 350.131,357.742C359.268,358.348 358.087,376.104 358.087,376.104C358.495,380.562 362.305,378.837 362.305,378.837C371.445,372.296 369.128,350.178 369.128,350.178C375.952,340.169 371.857,328.796 371.857,328.796C370.028,324.041 366.484,320.514 361.271,320.088C356.798,319.724 353.118,323.302 348.878,323.54C344.638,323.302 340.957,319.724 336.483,320.088C331.271,320.514 327.727,324.041 325.897,328.796C325.897,328.796 321.803,340.169 328.627,350.178C328.627,350.178 326.31,372.296 335.45,378.837C335.45,378.837 339.261,380.562 339.668,376.104C339.668,376.104 338.487,358.348 347.624,357.742C348.078,357.71 348.534,357.719 348.989,357.725Z" style="fill:rgb(240,233,219);fill-rule:nonzero;"/>
            </g>
            <g transform="matrix(4.16667,0,0,4.16667,-1302.33,-1264.38)">
                <path d="M343.459,359.703C343.291,359.783 343.126,359.867 342.966,359.963C340.351,361.507 339.996,364.219 339.322,366.93C338.942,368.459 337.63,373.922 335.096,371.439C333.616,369.99 333.229,367.613 332.933,365.652C332.609,363.511 332.339,361.336 332.252,359.172C332.069,354.683 332.757,349.953 336.234,346.806C335.4,346.233 334.437,345.86 333.651,345.222C332.769,344.504 332.168,343.558 331.746,342.506C330.757,340.036 330.084,337.386 330.185,334.709C330.335,330.781 331.624,326.496 335.77,325.199C339.813,323.931 343.572,325.54 347.368,326.811C349.819,327.631 352.547,328.359 355.148,327.906C356.961,327.59 358.932,326.764 359.101,324.776C357.38,325.674 355.102,325.565 353.269,325.242C351.775,324.977 350.08,324.522 348.851,323.537C344.621,323.284 340.947,319.724 336.483,320.088C331.271,320.514 327.727,324.041 325.897,328.796C325.897,328.796 321.803,340.169 328.627,350.178C328.627,350.178 326.31,372.296 335.45,378.837C335.45,378.837 339.261,380.562 339.668,376.104C339.668,376.104 338.894,364.45 343.459,359.703Z" style="fill:rgb(238,205,203);fill-rule:nonzero;"/>
            </g>
            <g transform="matrix(4.16667,0,0,4.16667,-1302.33,-1264.38)">
                <path d="M372.803,340.655C372.694,340.916 372.575,341.176 372.439,341.429C371.407,343.345 369.847,344.846 368.016,346.002C366.727,346.818 365.37,347.506 364.004,348.178C363.689,348.332 363.375,348.487 363.062,348.642C362.758,348.794 363.07,348.899 363.287,349.223C363.698,349.841 364.086,350.477 364.395,351.155C365.577,353.734 366.014,356.521 366.152,359.334C366.3,362.345 366.561,365.53 365.953,368.501C365.665,369.91 365.226,371.257 364.574,372.539C364.183,373.305 363.714,374.212 362.954,374.68C362.318,375.071 361.342,375.348 360.702,374.786C360.037,374.205 359.983,373.33 359.876,372.503C359.625,370.567 359.257,368.593 358.816,366.691C358.377,364.803 357.809,362.729 356.504,361.236C355.859,360.5 355.115,360.007 354.303,359.711C358.86,364.463 358.087,376.104 358.087,376.104C358.495,380.562 362.305,378.837 362.305,378.837C371.445,372.296 369.128,350.178 369.128,350.178C371.292,347.004 372.355,343.696 372.803,340.655Z" style="fill:rgb(238,205,203);fill-rule:nonzero;"/>
            </g>
            <g transform="matrix(4.16667,0,0,4.16667,-1302.33,-1264.38)">
                <path d="M366.321,365.121C365.905,365.028 365.494,364.892 365.094,364.709C363.118,363.811 362.575,361.776 363.008,359.785C363.425,357.87 364.512,356.905 365.891,356.487C366.024,357.428 366.105,358.38 366.152,359.334C366.245,361.227 366.382,363.188 366.321,365.121Z" style="fill:rgb(166,179,118);fill-rule:nonzero;"/>
            </g>
            <g transform="matrix(4.16667,0,0,4.16667,-1302.33,-1264.38)">
                <path d="M367.726,365.276C367.258,365.276 366.786,365.226 366.321,365.121C366.382,363.188 366.245,361.227 366.152,359.334C366.105,358.38 366.024,357.428 365.891,356.487C366.522,356.296 367.215,356.219 367.931,356.219C368.247,356.219 368.568,356.234 368.89,356.26C368.89,358.877 368.747,362.07 368.256,365.255C368.08,365.269 367.903,365.276 367.726,365.276Z" style="fill:rgb(165,158,111);fill-rule:nonzero;"/>
            </g>
            <g transform="matrix(4.16667,0,0,4.16667,-1302.33,-1264.38)">
                <path d="M335.88,326.743C335.479,326.743 335.058,326.686 334.623,326.566C334.309,326.478 334.01,326.362 333.731,326.219C334.318,325.789 334.994,325.441 335.77,325.199C336.811,324.872 337.832,324.737 338.84,324.737C338.967,324.737 339.094,324.739 339.221,324.743C338.577,325.963 337.365,326.743 335.88,326.743Z" style="fill:rgb(166,179,118);fill-rule:nonzero;"/>
            </g>
            <g transform="matrix(4.16667,0,0,4.16667,-1302.33,-1264.38)">
                <path d="M333.731,326.219C332.241,325.462 331.295,323.981 331.345,322.36C332.817,321.376 334.537,320.75 336.523,320.586C336.725,320.57 336.926,320.562 337.126,320.562L337.136,320.562C337.949,320.562 338.746,320.695 339.536,320.911C339.623,321.359 339.685,321.813 339.714,322.275C339.773,323.199 339.59,324.044 339.221,324.743C339.094,324.739 338.967,324.737 338.84,324.737C337.832,324.737 336.811,324.872 335.77,325.199C334.994,325.441 334.318,325.789 333.731,326.219Z" style="fill:rgb(165,158,111);fill-rule:nonzero;"/>
            </g>
            <g transform="matrix(4.16667,0,0,4.16667,-1302.33,-1264.38)">
                <path d="M333.539,368.634C333.24,367.644 333.076,366.599 332.933,365.652C332.828,364.959 332.729,364.264 332.64,363.566C332.75,363.618 332.857,363.675 332.962,363.736C334.65,364.719 334.627,366.943 333.698,368.402C333.648,368.481 333.595,368.558 333.539,368.634Z" style="fill:rgb(166,179,118);fill-rule:nonzero;"/>
            </g>
            <g transform="matrix(4.16667,0,0,4.16667,-1302.33,-1264.38)">
                <path d="M330.674,370.465C330.468,369.806 330.283,369.129 330.119,368.442C329.708,366.733 329.423,364.961 329.23,363.225C329.63,363.137 330.041,363.092 330.45,363.092C331.213,363.092 331.97,363.247 332.64,363.566C332.729,364.264 332.828,364.959 332.933,365.652C333.076,366.599 333.24,367.644 333.539,368.634C332.862,369.552 331.79,370.222 330.674,370.465Z" style="fill:rgb(165,158,111);fill-rule:nonzero;"/>
            </g>
            <g transform="matrix(4.16667,0,0,4.16667,-1302.33,-1264.38)">
                <path d="M341.491,348.721C340.289,348.01 339.045,348.982 338.223,349.832L338.065,349.912C336.898,352.559 342.646,354.915 342.689,351.33C342.7,350.393 342.351,349.229 341.491,348.721Z" style="fill:rgb(108,143,38);fill-rule:nonzero;"/>
            </g>
            <g transform="matrix(4.16667,0,0,4.16667,-1302.33,-1264.38)">
                <path d="M348.989,357.725L348.986,358.225C349.121,358.226 349.256,358.227 349.394,358.227L349.567,358.226C349.751,358.226 349.927,358.228 350.097,358.24C351.781,358.356 353.049,359.074 354.075,360.196C355.609,361.876 356.525,364.507 357.026,367.152C357.532,369.795 357.637,372.444 357.636,374.158C357.636,374.749 357.624,375.23 357.612,375.561C357.6,375.893 357.588,376.07 357.588,376.071L357.585,376.11L357.589,376.149C357.709,377.484 358.132,378.388 358.744,378.946C359.355,379.505 360.1,379.667 360.728,379.665C361.706,379.661 362.475,379.306 362.51,379.293L362.555,379.273L362.595,379.244C365.785,376.953 367.578,372.953 368.608,368.675C369.635,364.391 369.889,359.799 369.89,356.252C369.89,352.657 369.627,350.138 369.625,350.126L369.128,350.178L369.542,350.46C372.713,345.807 373.576,340.867 373.575,336.881C373.574,332.094 372.339,328.662 372.328,328.627L372.324,328.617C371.386,326.177 370.001,324.035 368.16,322.441C366.321,320.846 364.021,319.809 361.312,319.59C361.082,319.571 360.853,319.562 360.627,319.562C358.4,319.565 356.407,320.418 354.494,321.258C352.579,322.105 350.739,322.938 348.85,323.041L348.878,323.54L348.906,323.041C347.016,322.938 345.176,322.105 343.261,321.258C341.347,320.418 339.353,319.565 337.126,319.562C336.9,319.562 336.672,319.571 336.441,319.59C333.733,319.809 331.433,320.846 329.595,322.441C327.754,324.035 326.369,326.177 325.431,328.617L325.427,328.627C325.415,328.662 324.18,332.093 324.179,336.88C324.178,340.867 325.041,345.806 328.214,350.46L328.627,350.178L328.13,350.126C328.128,350.138 327.864,352.657 327.864,356.253C327.865,359.8 328.119,364.393 329.146,368.676C330.176,372.954 331.97,376.953 335.159,379.244L335.199,379.272L335.244,379.293C335.279,379.306 336.048,379.661 337.026,379.665C337.655,379.667 338.4,379.505 339.01,378.946C339.622,378.388 340.045,377.484 340.166,376.149L340.169,376.109L340.167,376.07C340.167,376.07 340.155,375.893 340.143,375.561C340.13,375.23 340.118,374.75 340.118,374.159C340.116,371.875 340.306,367.925 341.375,364.547C341.907,362.858 342.658,361.318 343.68,360.196C344.705,359.074 345.973,358.356 347.657,358.24C347.894,358.224 348.136,358.219 348.383,358.219C348.579,358.219 348.779,358.222 348.982,358.225L348.986,358.225L348.989,357.725L348.996,357.225C348.794,357.222 348.589,357.219 348.383,357.219C348.122,357.219 347.858,357.224 347.589,357.243C345.644,357.368 344.096,358.244 342.94,359.523C341.202,361.443 340.271,364.228 339.745,366.965C339.223,369.704 339.118,372.404 339.118,374.159C339.118,375.369 339.168,376.128 339.169,376.137L339.668,376.104L339.17,376.058C339.06,377.237 338.713,377.863 338.336,378.208C337.959,378.552 337.498,378.663 337.026,378.665C336.665,378.666 336.312,378.594 336.056,378.52C335.928,378.484 335.823,378.447 335.754,378.421L335.676,378.39L335.656,378.382L335.45,378.837L335.741,378.431C332.864,376.381 331.115,372.61 330.119,368.442C329.119,364.28 328.864,359.751 328.864,356.253C328.864,354.48 328.929,352.971 328.995,351.907C329.027,351.375 329.06,350.954 329.084,350.667C329.108,350.38 329.124,350.231 329.124,350.23L329.143,350.047L329.04,349.896C326.008,345.45 325.179,340.727 325.179,336.88C325.179,334.573 325.478,332.586 325.777,331.179C325.926,330.476 326.076,329.918 326.187,329.539C326.242,329.349 326.288,329.203 326.32,329.106C326.352,329.009 326.368,328.966 326.368,328.965L325.897,328.796L326.364,328.976C327.255,326.66 328.557,324.661 330.249,323.197C331.943,321.732 334.021,320.792 336.523,320.586C336.725,320.57 336.926,320.562 337.126,320.562C339.087,320.559 340.951,321.332 342.858,322.174C344.762,323.01 346.704,323.916 348.85,324.039L348.878,324.041L348.906,324.039C351.052,323.915 352.992,323.009 354.897,322.174C356.803,321.332 358.667,320.559 360.627,320.562C360.827,320.562 361.028,320.57 361.231,320.586C363.734,320.792 365.812,321.732 367.506,323.197C369.198,324.661 370.5,326.66 371.391,328.976L371.857,328.796L371.387,328.965C371.387,328.966 371.403,329.009 371.434,329.106C371.657,329.784 372.576,332.843 372.575,336.881C372.574,340.728 371.746,345.451 368.715,349.896L368.612,350.047L368.631,350.23C368.631,350.23 368.647,350.38 368.671,350.667C368.744,351.527 368.89,353.592 368.89,356.252C368.891,359.749 368.635,364.279 367.636,368.442C366.639,372.61 364.89,376.381 362.014,378.431L362.305,378.837L362.099,378.381L362.079,378.39C361.964,378.44 361.361,378.668 360.728,378.665C360.256,378.663 359.795,378.552 359.418,378.208C359.041,377.863 358.694,377.237 358.585,376.058L358.087,376.104L358.586,376.137C358.586,376.128 358.636,375.368 358.636,374.158C358.635,371.817 358.452,367.799 357.333,364.245C356.771,362.469 355.975,360.802 354.815,359.523C353.659,358.244 352.111,357.368 350.164,357.243C349.958,357.228 349.759,357.226 349.567,357.226L349.392,357.227C349.261,357.227 349.128,357.226 348.993,357.225L348.996,357.225L348.989,357.725Z" style="fill:rgb(133,17,86);fill-rule:nonzero;"/>
            </g>
            <g transform="matrix(4.16667,0,0,4.16667,-1302.33,-1264.38)">
                <path d="M346.114,323.489C346.122,323.492 347.637,324.03 349.645,324.57C351.655,325.109 354.146,325.654 356.167,325.657C356.863,325.656 357.506,325.592 358.07,325.425C358.631,325.257 359.131,324.977 359.464,324.518C359.625,324.294 359.574,323.982 359.35,323.82C359.126,323.659 358.814,323.71 358.653,323.934C358.496,324.152 358.215,324.338 357.784,324.466C357.357,324.595 356.799,324.657 356.167,324.657C354.322,324.659 351.87,324.135 349.904,323.604C348.92,323.34 348.054,323.075 347.435,322.876C347.125,322.777 346.878,322.694 346.708,322.636C346.538,322.579 346.449,322.547 346.448,322.547C346.188,322.454 345.902,322.59 345.81,322.851C345.718,323.111 345.854,323.397 346.114,323.489Z" style="fill:rgb(133,17,86);fill-rule:nonzero;"/>
            </g>
            <g transform="matrix(4.16667,0,0,4.16667,-1302.33,-1264.38)">
                <path d="M363.085,317.466C363.42,317.529 363.741,317.646 364.028,317.856C364.715,318.353 365.52,318.52 366.294,318.11C366.706,317.891 367.038,317.586 367.527,317.563C368.37,317.522 369.168,317.98 369.777,318.516C370.452,319.111 371.226,320.266 371.41,321.155C371.528,321.721 371.442,322.298 371.838,322.773C372.37,323.411 373.3,323.449 373.817,324.069C374.397,324.762 374.617,325.692 374.646,326.579C374.68,327.593 374.289,328.549 374.067,329.524C373.927,330.14 373.715,330.736 373.505,331.33C373.269,331.997 373.316,332.993 372.372,332.762C371.941,332.656 371.356,332.727 371.135,332.26C370.992,331.959 370.93,331.598 370.728,331.324C370.345,330.803 369.704,330.812 369.093,330.821C368.848,330.825 368.607,330.829 368.39,330.798C367.181,330.627 366.812,329.491 366.707,328.427C366.592,327.257 366.975,324.528 365.303,324.244C364.582,324.12 363.941,324.576 363.276,324.761C362.443,324.993 361.238,324.332 361.218,323.364C361.209,322.94 361.528,322.567 361.431,322.138C361.284,321.477 360.649,321.306 360.059,321.282C359.385,321.254 358.722,321.403 358.052,321.439C357.484,321.47 356.061,321.498 355.747,320.872C355.297,319.976 356.065,319.299 356.737,318.848C357.473,318.356 358.239,317.87 359.089,317.602C359.788,317.382 360.525,317.436 361.247,317.422C361.834,317.412 362.482,317.353 363.085,317.466Z" style="fill:rgb(108,143,38);fill-rule:nonzero;"/>
            </g>
            <g transform="matrix(4.16667,0,0,4.16667,-1302.33,-1264.38)">
                <path d="M373.213,332.361C373.335,332.076 373.384,331.7 373.487,331.384C373.384,331.7 373.335,332.076 373.213,332.361Z" style="fill:rgb(82,155,170);fill-rule:nonzero;"/>
            </g>
            <g transform="matrix(4.16667,0,0,4.16667,-1302.33,-1264.38)">
                <path d="M372.63,332.796C372.94,332.795 373.105,332.615 373.213,332.361C373.105,332.615 372.94,332.796 372.63,332.796Z" style="fill:rgb(103,0,64);fill-rule:nonzero;"/>
            </g>
            <g transform="matrix(4.16667,0,0,4.16667,-1302.33,-1264.38)">
                <path d="M370.722,331.315C370.721,331.314 370.72,331.313 370.719,331.312C370.72,331.313 370.721,331.314 370.722,331.315ZM370.705,331.294C370.703,331.291 370.7,331.288 370.698,331.285C370.7,331.288 370.703,331.291 370.705,331.294ZM370.694,331.28C370.693,331.279 370.692,331.278 370.691,331.277C370.692,331.278 370.693,331.279 370.694,331.28ZM368.853,330.824L368.848,330.824L368.853,330.824ZM368.856,330.824C368.893,330.824 368.93,330.824 368.968,330.823C368.93,330.824 368.893,330.824 368.856,330.824ZM369.093,330.821C369.174,330.82 369.255,330.819 369.336,330.819C369.255,330.819 369.174,330.82 369.093,330.821ZM368.457,330.806C368.434,330.804 368.412,330.801 368.39,330.798C367.181,330.627 366.812,329.491 366.707,328.427C366.592,327.257 366.975,324.528 365.303,324.244C366.975,324.528 366.592,327.257 366.707,328.427C366.812,329.491 367.181,330.627 368.39,330.798C368.412,330.801 368.434,330.804 368.457,330.806ZM362.919,324.808L362.906,324.808L362.919,324.808ZM362.92,324.808C363.043,324.808 363.163,324.793 363.276,324.761C363.163,324.793 363.043,324.808 362.92,324.808ZM363.289,324.758C363.302,324.754 363.316,324.75 363.329,324.746C363.316,324.75 363.302,324.754 363.289,324.758ZM363.332,324.745C363.337,324.744 363.34,324.742 363.345,324.741C363.34,324.742 363.337,324.744 363.332,324.745ZM363.39,324.727C363.392,324.726 363.395,324.725 363.398,324.724C363.395,324.725 363.392,324.726 363.39,324.727ZM363.569,324.664C363.586,324.658 363.602,324.652 363.619,324.645C363.602,324.652 363.586,324.658 363.569,324.664ZM363.626,324.643C364.091,324.463 364.554,324.224 365.051,324.223C364.554,324.224 364.091,324.463 363.626,324.643ZM365.054,324.223L365.053,324.223L365.054,324.223Z" style="fill:rgb(180,176,167);fill-rule:nonzero;"/>
            </g>
            <g transform="matrix(4.16667,0,0,4.16667,-1302.33,-1264.38)">
                <path d="M373.817,324.069C373.803,324.052 373.789,324.035 373.774,324.02C373.789,324.035 373.803,324.052 373.817,324.069Z" style="fill:rgb(82,155,170);fill-rule:nonzero;"/>
            </g>
            <g transform="matrix(4.16667,0,0,4.16667,-1302.33,-1264.38)">
                <path d="M357.588,321.452L357.552,321.452L357.588,321.452ZM357.589,321.452C357.77,321.452 357.931,321.445 358.052,321.439C357.931,321.445 357.77,321.452 357.589,321.452ZM358.083,321.437C358.146,321.433 358.209,321.429 358.271,321.423C358.209,321.429 358.146,321.433 358.083,321.437ZM358.315,321.419C358.357,321.416 358.398,321.412 358.44,321.407C358.398,321.412 358.357,321.416 358.315,321.419ZM358.44,321.407C358.459,321.405 358.478,321.403 358.497,321.401C358.478,321.403 358.459,321.405 358.44,321.407ZM358.5,321.401C358.961,321.351 359.419,321.279 359.883,321.278C359.42,321.279 358.961,321.351 358.5,321.401ZM359.891,321.278L359.89,321.278L359.891,321.278Z" style="fill:rgb(180,176,167);fill-rule:nonzero;"/>
            </g>
            <g transform="matrix(4.16667,0,0,4.16667,-1302.33,-1264.38)">
                <path d="M372.628,332.796C372.552,332.796 372.467,332.785 372.372,332.762C371.941,332.656 371.356,332.727 371.135,332.26C370.992,331.959 370.93,331.598 370.728,331.324C370.726,331.321 370.724,331.318 370.722,331.315C370.721,331.314 370.72,331.313 370.719,331.312C370.715,331.306 370.71,331.3 370.705,331.294C370.703,331.291 370.7,331.288 370.698,331.285C370.697,331.283 370.695,331.282 370.694,331.28C370.693,331.279 370.692,331.278 370.691,331.277C370.357,330.868 369.85,330.819 369.337,330.819L369.336,330.819C369.255,330.819 369.174,330.82 369.093,330.821C369.051,330.822 369.01,330.823 368.968,330.823C368.93,330.824 368.893,330.824 368.856,330.824L368.848,330.824C368.713,330.824 368.582,330.82 368.457,330.806C368.434,330.804 368.412,330.801 368.39,330.798C367.181,330.627 366.812,329.491 366.707,328.427C366.592,327.257 366.975,324.528 365.303,324.244C365.219,324.23 365.136,324.223 365.054,324.223L365.051,324.223C364.554,324.224 364.091,324.463 363.626,324.643C363.623,324.644 363.621,324.644 363.619,324.645C363.602,324.652 363.586,324.658 363.569,324.664C363.512,324.686 363.455,324.706 363.398,324.724C363.395,324.725 363.392,324.726 363.39,324.727C363.375,324.732 363.36,324.736 363.345,324.741C363.34,324.742 363.337,324.744 363.332,324.745C363.331,324.745 363.33,324.745 363.329,324.746C363.316,324.75 363.302,324.754 363.289,324.758C363.285,324.759 363.28,324.76 363.276,324.761C363.163,324.793 363.043,324.808 362.92,324.808L362.906,324.808C362.127,324.801 361.235,324.196 361.218,323.364L361.218,323.349C361.217,322.987 361.449,322.662 361.449,322.306C361.449,322.251 361.444,322.195 361.431,322.138C361.284,321.477 360.649,321.306 360.059,321.282C360.003,321.279 359.947,321.278 359.891,321.278L359.883,321.278C359.419,321.279 358.961,321.351 358.5,321.401L358.497,321.401C358.478,321.403 358.459,321.405 358.44,321.407C358.398,321.412 358.357,321.416 358.315,321.419C358.301,321.421 358.286,321.422 358.271,321.423C358.209,321.429 358.146,321.433 358.083,321.437C358.073,321.438 358.062,321.438 358.052,321.439C357.931,321.445 357.77,321.452 357.589,321.452L357.552,321.452C356.908,321.449 356.032,321.36 355.765,320.906C355.763,320.902 355.761,320.898 355.759,320.894C355.757,320.891 355.755,320.887 355.753,320.883C355.751,320.88 355.749,320.876 355.747,320.872C355.725,320.829 355.706,320.786 355.69,320.744C355.636,320.603 355.612,320.468 355.612,320.339C355.614,319.703 356.206,319.205 356.737,318.848C356.952,318.705 357.17,318.564 357.392,318.427C357.308,318.715 357.35,319.009 357.611,319.287C357.95,319.649 358.396,319.769 358.884,319.769C359.791,319.769 360.84,319.352 361.597,319.3C361.65,319.296 361.699,319.295 361.747,319.295C363.478,319.295 362.204,321.611 362.237,322.564C362.251,323.013 362.434,323.394 362.812,323.629C362.99,323.74 363.196,323.784 363.421,323.784C364.303,323.784 365.461,323.098 366.186,323.041C366.23,323.038 366.272,323.036 366.313,323.036C367.853,323.036 367.08,325.486 367.013,326.458C366.953,327.316 367.371,328.524 367.978,329.135C368.36,329.521 368.703,329.807 369.162,329.807C369.297,329.807 369.441,329.782 369.599,329.729C369.767,329.672 369.905,329.648 370.021,329.648C370.703,329.648 370.622,330.491 371.408,330.52C371.434,330.521 371.459,330.521 371.484,330.521C373.028,330.521 373.599,328.819 373.769,327.526C373.933,326.28 373.741,324.906 373.293,323.656C373.47,323.755 373.635,323.868 373.774,324.02C373.789,324.035 373.803,324.052 373.817,324.069C374.397,324.762 374.617,325.692 374.646,326.579C374.648,326.619 374.648,326.659 374.648,326.698C374.649,327.668 374.28,328.587 374.067,329.524C373.927,330.14 373.715,330.736 373.505,331.33C373.502,331.337 373.5,331.344 373.498,331.351C373.495,331.357 373.493,331.364 373.491,331.37C373.49,331.375 373.488,331.38 373.487,331.384C373.384,331.7 373.335,332.076 373.213,332.361C373.105,332.615 372.94,332.795 372.63,332.796L372.628,332.796Z" style="fill:rgb(81,112,24);fill-rule:nonzero;"/>
            </g>
            <g transform="matrix(4.16667,0,0,4.16667,-1302.33,-1264.38)">
                <path d="M363.085,317.466L362.993,317.958C363.275,318.01 363.518,318.103 363.733,318.26L363.735,318.261C364.22,318.612 364.784,318.84 365.389,318.84C365.77,318.841 366.159,318.747 366.527,318.552C366.77,318.422 366.959,318.289 367.121,318.202C367.284,318.114 367.407,318.07 367.551,318.062L367.632,318.06C368.246,318.054 368.915,318.419 369.446,318.891C369.736,319.145 370.078,319.554 370.355,319.993C370.634,320.43 370.849,320.904 370.92,321.256C370.969,321.482 370.978,321.757 371.026,322.075C371.073,322.388 371.177,322.763 371.454,323.093C371.814,323.521 372.264,323.714 372.625,323.882C372.994,324.049 373.272,324.191 373.434,324.389C373.911,324.956 374.121,325.776 374.147,326.596L374.148,326.702C374.154,327.541 373.809,328.426 373.58,329.413C373.448,329.991 373.244,330.568 373.033,331.163C372.906,331.535 372.856,331.901 372.773,332.115C372.735,332.222 372.694,332.276 372.682,332.285L372.627,332.296L372.491,332.276C372.202,332.209 371.951,332.201 371.79,332.159L371.635,332.102L371.587,332.046C371.475,331.836 371.419,331.438 371.131,331.028C370.896,330.704 370.564,330.511 370.247,330.422C369.928,330.33 369.619,330.32 369.336,330.319C369.164,330.319 369.001,330.323 368.852,330.323C368.701,330.324 368.566,330.318 368.459,330.303C368.007,330.231 367.773,330.033 367.566,329.695C367.365,329.357 367.251,328.871 367.205,328.378C367.15,327.869 367.219,326.864 367.083,325.93C367.012,325.46 366.892,324.992 366.633,324.583C366.379,324.175 365.943,323.839 365.387,323.751C365.274,323.732 365.162,323.723 365.052,323.723C364.64,323.724 364.283,323.844 363.97,323.964C363.657,324.087 363.381,324.214 363.142,324.279L362.919,324.308C362.657,324.31 362.326,324.195 362.091,324.007C361.851,323.816 361.721,323.587 361.718,323.353L361.717,323.342L361.717,323.343L361.717,323.329L361.382,323.346L361.717,323.346L361.717,323.329L361.382,323.346L361.717,323.346C361.715,323.274 361.746,323.155 361.806,322.984C361.862,322.814 361.946,322.593 361.948,322.305C361.948,322.22 361.941,322.127 361.919,322.03C361.82,321.553 361.492,321.198 361.139,321.026C360.785,320.847 360.415,320.797 360.079,320.782L359.889,320.778C359.204,320.78 358.587,320.911 358.025,320.939C357.909,320.946 357.757,320.952 357.588,320.952C357.279,320.952 356.91,320.929 356.628,320.86C356.487,320.827 356.37,320.782 356.298,320.738L356.194,320.648C356.131,320.522 356.113,320.427 356.112,320.341C356.112,320.184 356.185,320.013 356.354,319.816C356.52,319.622 356.768,319.429 357.016,319.263C357.743,318.775 358.473,318.32 359.24,318.079C359.816,317.893 360.502,317.932 361.256,317.922C361.581,317.916 361.906,317.897 362.216,317.898C362.491,317.897 362.754,317.912 362.993,317.957L363.085,317.466L363.178,316.975C362.849,316.913 362.525,316.898 362.216,316.898C361.867,316.898 361.535,316.917 361.238,316.922C360.548,316.939 359.76,316.871 358.939,317.125C358.005,317.421 357.202,317.936 356.459,318.432C356.174,318.624 355.86,318.858 355.596,319.163C355.336,319.464 355.113,319.861 355.112,320.341C355.112,320.591 355.175,320.85 355.3,321.097C355.417,321.329 355.603,321.491 355.793,321.602C356.366,321.922 357.053,321.944 357.588,321.952C357.781,321.952 357.951,321.945 358.079,321.938C358.743,321.899 359.342,321.776 359.889,321.778L360.038,321.781C360.293,321.79 360.535,321.838 360.683,321.916C360.832,322.001 360.895,322.062 360.943,322.247L360.948,322.305C360.95,322.372 360.919,322.491 360.859,322.663C360.803,322.833 360.719,323.057 360.717,323.346L360.718,323.381L360.718,323.384L361.218,323.364L360.718,323.374C360.731,323.977 361.061,324.47 361.472,324.792C361.888,325.117 362.399,325.305 362.919,325.308C363.083,325.308 363.248,325.288 363.41,325.243C363.758,325.144 364.059,325.002 364.333,324.896C364.606,324.789 364.844,324.722 365.052,324.723L365.218,324.737C365.5,324.791 365.642,324.903 365.791,325.122C366.008,325.45 366.122,326.058 366.154,326.692C366.191,327.331 366.162,327.976 366.209,328.476C366.267,329.047 366.39,329.66 366.702,330.2C367.008,330.739 367.563,331.194 368.32,331.293C368.503,331.319 368.681,331.323 368.852,331.323C369.02,331.323 369.183,331.319 369.336,331.319C369.586,331.318 369.807,331.334 369.967,331.382C370.13,331.432 370.228,331.492 370.326,331.621C370.44,331.758 370.508,332.083 370.684,332.475C370.776,332.673 370.927,332.835 371.087,332.939C371.331,333.095 371.572,333.14 371.772,333.174C371.974,333.204 372.147,333.22 372.251,333.247C372.379,333.279 372.503,333.296 372.627,333.296C372.903,333.301 373.181,333.192 373.362,333.018C373.635,332.755 373.721,332.451 373.797,332.187C373.867,331.919 373.915,331.667 373.976,331.497C374.186,330.903 374.406,330.289 374.555,329.635C374.75,328.751 375.143,327.799 375.148,326.702L375.146,326.564C375.113,325.608 374.882,324.568 374.201,323.748C373.844,323.327 373.399,323.141 373.042,322.973C372.675,322.808 372.394,322.663 372.222,322.453C372.103,322.308 372.052,322.156 372.014,321.921C371.976,321.69 371.969,321.393 371.899,321.052C371.786,320.517 371.522,319.969 371.2,319.457C370.875,318.947 370.493,318.481 370.107,318.141C369.471,317.584 368.625,317.066 367.632,317.06L367.501,317.063C367.158,317.079 366.87,317.199 366.643,317.324C366.413,317.45 366.23,317.579 366.059,317.668C365.827,317.79 365.608,317.84 365.389,317.841C365.042,317.841 364.678,317.709 364.321,317.451L364.323,317.452C363.963,317.189 363.565,317.047 363.177,316.975L363.085,317.466Z" style="fill:rgb(133,17,86);fill-rule:nonzero;"/>
            </g>
            <g transform="matrix(4.16667,0,0,4.16667,-1302.33,-1264.38)">
                <path d="M364.604,320.113C365.053,320.914 366.159,321.166 366.837,320.482C366.907,320.41 366.944,320.308 366.896,320.21L366.768,320.096L366.542,320.135C365.995,320.656 365.287,320.52 364.798,319.988C364.712,319.894 364.538,319.993 364.604,320.113Z" style="fill:rgb(133,17,86);fill-rule:nonzero;"/>
            </g>
            <g transform="matrix(4.16667,0,0,4.16667,-1302.33,-1264.38)">
                <path d="M368.811,320.623C369.239,320.712 369.563,321.017 369.624,321.456C369.65,321.656 369.57,321.863 369.438,322.007C369.331,322.126 369.17,322.16 369.128,322.324L369.183,322.441C369.407,322.552 369.648,322.283 369.77,322.115C369.917,321.91 369.95,321.648 369.928,321.403C369.874,320.839 369.365,320.46 368.827,320.451C368.714,320.449 368.703,320.601 368.811,320.623Z" style="fill:rgb(133,17,86);fill-rule:nonzero;"/>
            </g>
            <g transform="matrix(4.16667,0,0,4.16667,-1302.33,-1264.38)">
                <path d="M368.898,325.408C368.729,325.882 368.956,326.309 369.439,326.448C369.789,326.55 370.618,326.471 370.666,326.001L370.568,325.883C370.418,325.869 370.312,325.949 370.181,326.011C370.009,326.094 369.827,326.135 369.637,326.126C369.239,326.109 369.089,325.777 369.061,325.424L368.898,325.408Z" style="fill:rgb(133,17,86);fill-rule:nonzero;"/>
            </g>
            <g transform="matrix(4.16667,0,0,4.16667,-1302.33,-1264.38)">
                <path d="M372.058,327.011C372.036,327.312 372.002,327.608 371.831,327.866C371.651,328.134 371.344,327.961 371.094,328.021L371.03,328.194C371.257,328.498 371.751,328.411 372.002,328.184C372.318,327.898 372.31,327.383 372.22,327.004C372.199,326.918 372.065,326.914 372.058,327.011Z" style="fill:rgb(133,17,86);fill-rule:nonzero;"/>
            </g>
            <g transform="matrix(4.16667,0,0,4.16667,-1302.33,-1264.38)">
                <path d="M359.827,318.901C360.033,318.695 360.369,318.552 360.648,318.703C360.781,318.777 360.858,318.912 360.899,319.053C360.942,319.205 360.893,319.363 361.019,319.477L361.119,319.486C361.449,319.246 361.057,318.593 360.77,318.472C360.358,318.297 360.007,318.51 359.784,318.86L359.827,318.901Z" style="fill:rgb(133,17,86);fill-rule:nonzero;"/>
            </g>
            <g transform="matrix(4.16667,0,0,4.16667,-1302.33,-1264.38)">
                <path d="M363.2,322.591C363.3,322.591 363.315,322.435 363.214,322.435C363.114,322.435 363.099,322.591 363.2,322.591Z" style="fill:rgb(133,17,86);fill-rule:nonzero;"/>
            </g>
            <g transform="matrix(4.16667,0,0,4.16667,-1302.33,-1264.38)">
                <path d="M363.211,322.522C363.481,322.418 363.705,322.241 364.008,322.241C364.318,322.239 364.431,322.525 364.658,322.664L364.797,322.576C364.742,322.258 364.403,322.071 364.104,322.035C363.766,321.996 363.373,322.231 363.199,322.507L363.211,322.522Z" style="fill:rgb(133,17,86);fill-rule:nonzero;"/>
            </g>
            <g transform="matrix(4.16667,0,0,4.16667,-1302.33,-1264.38)">
                <path d="M326.429,337.618C326.554,337.769 326.739,337.719 326.926,337.669C327.034,337.64 327.142,337.611 327.24,337.62C328.006,337.695 328.668,338.593 328.705,339.322C328.742,340.049 328.247,340.666 328.229,341.382C328.201,342.488 329.05,343.341 329.56,344.245C329.947,344.933 330.379,345.442 331.192,345.605C332.058,345.779 333.148,345.621 333.895,346.179C334.346,346.515 334.454,346.991 334.394,347.539C334.236,348.963 332.463,349.608 331.688,350.638C331.089,351.435 331.209,352.296 331.474,353.199C331.656,353.816 331.642,354.327 331.648,354.957C331.659,356.003 332.054,357.707 331.451,358.639C331.098,359.184 329.841,359.715 329.219,359.815C328.502,359.927 327.85,359.664 327.282,359.242C326.152,358.397 325.132,356.933 325.119,355.481C325.112,354.783 325.368,353.806 325.821,353.255C326.478,352.457 327.148,351.69 326.289,350.741C325.644,350.027 324.559,349.9 323.94,349.159C323.22,348.296 323.6,346.967 323.84,345.992C324.182,344.612 324.067,343.388 322.727,342.615C321.695,342.021 321.823,341.156 321.729,340.105C321.695,339.715 321.809,339.33 321.889,338.953C322.108,337.922 322.761,336.893 323.668,336.342C324.304,335.958 326.338,335.476 326.572,336.65C326.632,336.95 326.227,337.281 326.395,337.568L326.429,337.618Z" style="fill:rgb(108,143,38);fill-rule:nonzero;"/>
            </g>
            <g transform="matrix(4.16667,0,0,4.16667,-1302.33,-1264.38)">
                <path d="M326.429,337.618L326.043,337.935C326.198,338.138 326.477,338.228 326.655,338.218C326.838,338.216 326.962,338.174 327.056,338.151L327.165,338.124L327.2,338.118L327.2,337.945L327.178,338.117L327.2,338.118L327.2,337.945L327.178,338.117L327.192,338.118C327.391,338.133 327.653,338.288 327.859,338.542C328.066,338.79 328.198,339.122 328.206,339.347L328.207,339.4C328.208,339.633 328.123,339.9 328.004,340.221C327.89,340.541 327.742,340.915 327.73,341.37L327.728,341.436C327.729,342.108 327.986,342.677 328.275,343.166C328.567,343.657 328.898,344.089 329.124,344.491C329.331,344.857 329.562,345.204 329.881,345.492C330.198,345.782 330.605,345.999 331.093,346.095C331.594,346.193 332.093,346.195 332.534,346.245C332.977,346.292 333.34,346.385 333.596,346.58C333.721,346.674 333.788,346.763 333.836,346.87C333.883,346.976 333.908,347.107 333.909,347.273L333.896,347.489L333.896,347.484C333.867,347.741 333.771,347.96 333.608,348.186C333.367,348.523 332.967,348.85 332.535,349.186C332.104,349.526 331.641,349.873 331.289,350.337C330.904,350.844 330.752,351.414 330.756,351.951C330.756,352.433 330.863,352.893 330.994,353.34C331.152,353.874 331.142,354.316 331.148,354.962C331.157,355.62 331.286,356.416 331.285,357.122C331.288,357.653 331.205,358.109 331.031,358.368C330.966,358.489 330.612,358.759 330.216,358.945C329.823,359.139 329.372,359.286 329.14,359.321L328.886,359.341C328.441,359.341 328.004,359.156 327.581,358.84C326.546,358.078 325.615,356.693 325.619,355.476L325.619,355.467L325.618,355.45L325.533,355.453L325.618,355.453L325.618,355.45L325.533,355.453L325.618,355.453C325.608,354.875 325.868,353.963 326.207,353.573C326.422,353.311 326.654,353.038 326.846,352.73C327.036,352.423 327.194,352.066 327.195,351.651C327.198,351.223 327.01,350.787 326.66,350.405C326.249,349.955 325.751,349.726 325.327,349.512C324.897,349.301 324.545,349.108 324.324,348.839C324.11,348.582 324.023,348.256 324.022,347.842C324.02,347.305 324.185,346.671 324.325,346.113C324.434,345.672 324.503,345.234 324.503,344.803C324.504,344.299 324.405,343.797 324.156,343.341C323.907,342.885 323.511,342.489 322.977,342.182C322.564,341.933 322.455,341.731 322.361,341.406C322.273,341.081 322.274,340.618 322.227,340.06L322.223,339.958C322.22,339.712 322.3,339.409 322.377,339.058C322.565,338.153 323.163,337.227 323.928,336.769C324.032,336.705 324.269,336.604 324.535,336.532C324.803,336.459 325.108,336.409 325.371,336.41C325.607,336.408 325.803,336.452 325.909,336.511C326.014,336.577 326.047,336.609 326.082,336.748L326.572,336.65L326.081,336.742L326.235,336.713L326.078,336.713L326.081,336.742L326.235,336.713L326.078,336.713L326.155,336.713L326.079,336.697L326.078,336.713L326.155,336.713L326.079,336.697C326.08,336.703 326.047,336.784 325.992,336.897C325.941,337.013 325.858,337.168 325.853,337.414C325.852,337.543 325.887,337.694 325.964,337.821L325.973,337.838L326.019,337.903L326.03,337.919L326.043,337.935L326.429,337.618L326.839,337.332L326.805,337.282L326.395,337.568L326.825,337.314L326.654,337.414L326.853,337.414L326.825,337.314L326.654,337.414L326.853,337.414L326.765,337.414L326.852,337.433L326.853,337.414L326.765,337.414L326.852,337.433C326.85,337.428 326.883,337.347 326.939,337.232C326.99,337.116 327.073,336.958 327.078,336.713L327.064,336.558L327.062,336.551C326.986,336.135 326.707,335.797 326.383,335.631C326.06,335.459 325.711,335.411 325.371,335.41C324.989,335.41 324.611,335.476 324.272,335.568C323.932,335.662 323.639,335.777 323.41,335.914C322.358,336.559 321.65,337.691 321.399,338.849C321.336,339.156 321.225,339.524 321.223,339.958L321.231,340.149C321.278,340.642 321.262,341.138 321.392,341.656C321.516,342.175 321.858,342.703 322.477,343.049C322.882,343.283 323.123,343.54 323.278,343.821C323.432,344.102 323.502,344.424 323.503,344.803C323.503,345.126 323.45,345.487 323.354,345.872C323.221,346.418 323.024,347.118 323.022,347.842C323.021,348.393 323.146,348.989 323.557,349.48C323.954,349.951 324.453,350.192 324.882,350.407C325.317,350.621 325.683,350.812 325.918,351.076C326.149,351.337 326.192,351.502 326.196,351.651C326.197,351.797 326.135,351.979 325.996,352.202C325.86,352.424 325.654,352.672 325.435,352.937C324.877,353.634 324.629,354.64 324.618,355.453L324.619,355.494L325.119,355.481L324.619,355.485C324.649,357.173 325.758,358.716 326.983,359.642C327.515,360.039 328.157,360.34 328.886,360.34C329.02,360.34 329.157,360.33 329.296,360.309C329.687,360.244 330.177,360.075 330.656,359.843C331.131,359.602 331.583,359.334 331.871,358.911C332.216,358.367 332.281,357.735 332.285,357.122C332.283,356.31 332.151,355.487 332.148,354.952C332.141,354.339 332.16,353.758 331.953,353.057C331.833,352.652 331.755,352.279 331.755,351.951C331.759,351.582 331.84,351.273 332.088,350.938C332.392,350.524 333.002,350.108 333.593,349.62C333.888,349.373 334.179,349.102 334.418,348.772C334.657,348.445 334.841,348.05 334.89,347.594L334.891,347.59C334.901,347.488 334.908,347.382 334.908,347.273C334.909,347.004 334.866,346.728 334.75,346.466C334.636,346.204 334.446,345.964 334.194,345.778C333.704,345.415 333.148,345.308 332.643,345.251C332.136,345.197 331.656,345.19 331.29,345.115C330.966,345.047 330.751,344.929 330.552,344.751C330.354,344.573 330.176,344.321 329.995,344C329.718,343.512 329.384,343.079 329.136,342.657C328.885,342.234 328.728,341.843 328.728,341.436L328.729,341.396C328.733,341.159 328.824,340.888 328.944,340.563C329.06,340.24 329.205,339.86 329.207,339.4L329.204,339.298C329.175,338.793 328.958,338.311 328.633,337.909C328.307,337.514 327.855,337.182 327.288,337.123L327.24,337.62L327.302,337.124L327.2,337.118C327.017,337.12 326.89,337.162 326.795,337.186L326.685,337.213L326.658,337.218L326.655,337.219L326.655,337.406L326.726,337.235L326.655,337.219L326.655,337.406L326.726,337.235L326.637,337.446L326.815,337.3L326.726,337.235L326.637,337.446L326.815,337.3L326.429,337.618L326.839,337.332L326.429,337.618Z" style="fill:rgb(133,17,86);fill-rule:nonzero;"/>
            </g>
            <g transform="matrix(4.16667,0,0,4.16667,-1302.33,-1264.38)">
                <path d="M328.885,359.341C328.44,359.341 328.004,359.156 327.581,358.84C326.546,358.078 325.615,356.693 325.619,355.476L325.619,355.467L325.618,355.45C325.609,354.872 325.868,353.962 326.207,353.573C326.422,353.311 326.654,353.038 326.846,352.73C327.036,352.423 327.194,352.066 327.195,351.651C327.198,351.223 327.01,350.787 326.66,350.405C326.249,349.955 325.751,349.726 325.327,349.512C324.897,349.301 324.545,349.108 324.324,348.839C324.11,348.582 324.023,348.256 324.022,347.842C324.02,347.305 324.185,346.671 324.325,346.113C324.434,345.672 324.503,345.234 324.503,344.803C324.504,344.299 324.405,343.797 324.156,343.341C323.907,342.885 323.511,342.489 322.977,342.182C322.564,341.933 322.455,341.731 322.361,341.406C322.273,341.081 322.274,340.618 322.227,340.06L322.223,339.958C322.22,339.712 322.3,339.409 322.377,339.058C322.565,338.153 323.163,337.227 323.928,336.769C324.032,336.705 324.269,336.604 324.535,336.532C324.555,336.527 324.574,336.522 324.594,336.517C323.706,336.998 322.925,337.599 322.585,338.661C322.459,339.054 322.602,339.698 322.866,340.013C323.699,341.003 324.788,341.319 324.567,342.872C324.477,343.513 324.418,344.113 324.584,344.746C324.646,344.987 324.843,345.205 324.992,345.396C325.768,346.381 324.926,346.815 324.701,347.547C324.276,348.93 325.389,349.446 326.507,349.871C327.124,350.105 327.707,350.305 327.815,351.12C327.893,351.704 327.301,352.466 327.003,352.938C326.597,353.583 326.338,354.186 326.258,354.944C326.14,356.062 326.726,357.653 327.838,358.111C328.152,358.239 328.47,358.297 328.786,358.297C329.723,358.297 330.632,357.786 331.285,357.084L331.285,357.122C331.288,357.653 331.205,358.109 331.031,358.368C330.966,358.489 330.612,358.759 330.216,358.945C329.823,359.139 329.372,359.286 329.14,359.321L328.886,359.341L328.885,359.341Z" style="fill:rgb(81,112,24);fill-rule:nonzero;"/>
            </g>
            <g transform="matrix(4.16667,0,0,4.16667,-1302.33,-1264.38)">
                <path d="M328.886,359.841C328.3,359.841 327.761,359.598 327.282,359.242C326.152,358.397 325.132,356.933 325.119,355.481C325.112,354.783 325.368,353.806 325.821,353.255C326.478,352.457 327.148,351.69 326.289,350.741C325.644,350.027 324.559,349.9 323.94,349.159C323.22,348.296 323.6,346.967 323.84,345.992C324.182,344.612 324.067,343.388 322.727,342.615C321.695,342.021 321.823,341.156 321.729,340.105C321.695,339.715 321.809,339.33 321.889,338.953C322.108,337.922 322.761,336.893 323.668,336.342C324.003,336.139 324.724,335.911 325.367,335.911C325.501,335.911 325.632,335.921 325.756,335.944C325.367,336.13 324.971,336.313 324.594,336.517C324.574,336.522 324.555,336.527 324.535,336.532C324.269,336.604 324.032,336.705 323.928,336.769C323.163,337.227 322.565,338.153 322.377,339.058C322.3,339.409 322.22,339.712 322.223,339.958L322.227,340.06C322.274,340.618 322.273,341.081 322.361,341.406C322.455,341.731 322.564,341.933 322.977,342.182C323.511,342.489 323.907,342.885 324.156,343.341C324.405,343.797 324.504,344.299 324.503,344.803C324.503,345.234 324.434,345.672 324.325,346.113C324.185,346.671 324.02,347.305 324.022,347.842C324.023,348.256 324.11,348.582 324.324,348.839C324.545,349.108 324.897,349.301 325.327,349.512C325.751,349.726 326.249,349.955 326.66,350.405C327.01,350.787 327.198,351.223 327.195,351.651C327.194,352.066 327.036,352.423 326.846,352.73C326.654,353.038 326.422,353.311 326.207,353.573C325.868,353.962 325.609,354.872 325.618,355.45L325.619,355.467L325.619,355.476C325.615,356.693 326.546,358.078 327.581,358.84C328.004,359.156 328.44,359.341 328.885,359.341L328.886,359.341L329.14,359.321C329.372,359.286 329.823,359.139 330.216,358.945C330.612,358.759 330.966,358.489 331.031,358.368C331.205,358.109 331.288,357.653 331.285,357.122L331.285,357.084C331.421,356.938 331.546,356.783 331.658,356.622L331.757,356.457C331.813,357.258 331.81,358.084 331.451,358.639C331.098,359.184 329.841,359.715 329.219,359.815C329.106,359.832 328.996,359.841 328.886,359.841Z" style="fill:rgb(103,0,64);fill-rule:nonzero;"/>
            </g>
            <g transform="matrix(4.16667,0,0,4.16667,-1302.33,-1264.38)">
                <path d="M324.324,338.631C324.266,338.919 324.233,339.226 324.533,339.402C324.772,339.542 325.179,339.458 325.338,339.242L325.275,339.105C325.081,339.092 324.916,339.207 324.72,339.19C324.516,339.173 324.472,338.802 324.472,338.644C324.472,338.548 324.343,338.536 324.324,338.631Z" style="fill:rgb(133,17,86);fill-rule:nonzero;"/>
            </g>
            <g transform="matrix(4.16667,0,0,4.16667,-1302.33,-1264.38)">
                <path d="M325.734,342.273C326.183,342.329 326.551,342.618 326.486,343.101C326.457,343.324 326.308,343.449 326.146,343.578C326.042,343.661 325.99,343.779 326.105,343.873L326.267,343.887C326.668,343.69 326.85,343.177 326.741,342.759C326.619,342.289 326.179,342.087 325.729,342.116C325.636,342.122 325.649,342.261 325.734,342.273Z" style="fill:rgb(133,17,86);fill-rule:nonzero;"/>
            </g>
            <g transform="matrix(4.16667,0,0,4.16667,-1302.33,-1264.38)">
                <path d="M326.419,346.596C326.173,346.918 326.135,347.324 326.51,347.58C326.785,347.772 327.494,347.729 327.56,347.338L327.508,347.256C327.275,347.163 327.039,347.377 326.787,347.353C326.469,347.321 326.469,346.859 326.495,346.624L326.419,346.596Z" style="fill:rgb(133,17,86);fill-rule:nonzero;"/>
            </g>
            <g transform="matrix(4.16667,0,0,4.16667,-1302.33,-1264.38)">
                <path d="M327.838,344.62C328.023,344.762 328.255,344.889 328.325,345.128C328.393,345.362 328.17,345.522 328.175,345.742L328.288,345.846C328.603,345.773 328.678,345.351 328.612,345.077C328.533,344.745 328.2,344.539 327.882,344.499L327.838,344.62Z" style="fill:rgb(133,17,86);fill-rule:nonzero;"/>
            </g>
            <g transform="matrix(4.16667,0,0,4.16667,-1302.33,-1264.38)">
                <path d="M330.773,346.904C330.519,347.081 330.349,347.315 330.471,347.629C330.58,347.908 331.104,348.145 331.348,347.972L331.377,347.836C331.271,347.63 331.036,347.645 330.854,347.522C330.663,347.391 330.773,347.119 330.84,346.951L330.773,346.904Z" style="fill:rgb(133,17,86);fill-rule:nonzero;"/>
            </g>
            <g transform="matrix(4.16667,0,0,4.16667,-1302.33,-1264.38)">
                <path d="M328.504,352.044C328.74,352.079 329.019,352.153 329.097,352.409C329.179,352.679 328.953,352.84 328.777,352.994L328.713,353.172L328.755,353.261L328.981,353.311C329.334,353.146 329.559,352.686 329.407,352.31C329.256,351.929 328.851,351.768 328.487,351.95L328.504,352.044Z" style="fill:rgb(133,17,86);fill-rule:nonzero;"/>
            </g>
            <g transform="matrix(4.16667,0,0,4.16667,-1302.33,-1264.38)">
                <path d="M328.04,354.552C327.761,354.86 327.688,355.391 328.066,355.663C328.443,355.937 328.913,355.784 329.226,355.489C329.297,355.42 329.343,355.298 329.287,355.205L329.208,355.113C329.114,355.062 329.006,355.049 328.919,355.125C328.757,355.269 328.536,355.439 328.323,355.295C328.142,355.173 328.193,354.787 328.201,354.612C328.206,354.516 328.099,354.488 328.04,354.552Z" style="fill:rgb(133,17,86);fill-rule:nonzero;"/>
            </g>
            <g transform="matrix(4.16667,0,0,4.16667,-1302.33,-1264.38)">
                <path d="M373.284,303.855C373.284,303.855 373.083,304.138 372.717,304.62C372.514,304.851 372.366,305.185 372.151,305.525C372.04,305.693 371.949,305.888 371.867,306.101C371.786,306.316 371.666,306.52 371.596,306.758C371.528,306.992 371.458,307.238 371.384,307.491C371.348,307.753 371.287,308.017 371.25,308.291C371.206,308.847 371.188,309.429 371.255,310.04L371.264,310.155L371.26,310.126L371.262,310.134L371.265,310.149L371.27,310.178L371.28,310.239L371.322,310.48C371.352,310.642 371.406,310.722 371.438,310.849C371.552,311.097 371.682,311.347 371.862,311.581C372.212,312.057 372.702,312.489 373.224,312.941C373.731,313.407 374.283,313.895 374.716,314.534C374.823,314.693 374.927,314.855 375.011,315.033L375.073,315.164L375.105,315.229L375.13,315.288L375.145,315.333L375.221,315.572L375.296,315.809L375.349,316.116C375.386,316.323 375.407,316.523 375.395,316.703C375.396,317.456 375.161,318.116 374.924,318.68C374.685,319.249 374.416,319.737 374.198,320.195C373.975,320.65 373.813,321.07 373.698,321.453C373.604,321.839 373.555,322.19 373.567,322.481C373.576,322.627 373.585,322.758 373.592,322.873C373.616,322.986 373.637,323.081 373.655,323.159C373.69,323.318 373.709,323.403 373.709,323.403C373.709,323.403 373.669,323.326 373.594,323.182C373.557,323.108 373.51,323.016 373.455,322.909C373.415,322.797 373.378,322.663 373.333,322.513C373.254,322.208 373.218,321.82 373.251,321.378C373.298,320.941 373.395,320.445 373.564,319.947C373.865,318.942 374.414,317.825 374.351,316.727C374.355,316.584 374.329,316.463 374.302,316.349L374.27,316.169L374.181,315.938L374.089,315.705L374.004,315.555C373.943,315.428 373.86,315.309 373.777,315.189C373.441,314.706 372.947,314.276 372.435,313.824C371.931,313.364 371.38,312.875 370.935,312.249C370.706,311.945 370.533,311.586 370.401,311.219C370.352,311.026 370.281,310.796 370.264,310.634L370.236,310.391L370.219,310.235L370.216,310.106C370.173,309.429 370.267,308.761 370.381,308.147C370.455,307.842 370.543,307.547 370.628,307.267C370.748,307 370.863,306.741 370.974,306.491C371.088,306.245 371.242,306.034 371.37,305.825C371.497,305.617 371.629,305.429 371.782,305.267C372.071,304.939 372.303,304.639 372.547,304.46C373.011,304.071 373.284,303.855 373.284,303.855Z" style="fill:rgb(108,143,38);fill-rule:nonzero;"/>
            </g>
            <g transform="matrix(4.16667,0,0,4.16667,-1302.33,-1264.38)">
                <path d="M322.163,302.949C322.163,302.949 322.089,303.039 321.948,303.21C321.817,303.386 321.584,303.621 321.36,303.959C321.147,304.305 320.88,304.703 320.68,305.226C320.551,305.471 320.484,305.76 320.4,306.056C320.299,306.346 320.273,306.672 320.216,307C320.152,307.668 320.147,308.395 320.282,309.149C320.313,309.252 320.367,309.565 320.437,309.662C320.49,309.799 320.583,309.951 320.682,310.107C320.896,310.406 321.158,310.701 321.461,310.991C322.065,311.578 322.835,312.117 323.447,312.987C323.747,313.415 324.002,313.951 324.056,314.528C324.138,315.059 323.981,315.754 323.741,316.211C323.249,317.17 322.56,317.84 322.256,318.549C322.105,318.898 322.056,319.217 322.117,319.545L322.139,319.671C322.129,319.648 322.161,319.735 322.117,319.618L322.121,319.628L322.13,319.649L322.146,319.689L322.179,319.766C322.221,319.866 322.267,319.993 322.306,320.017C322.359,320.103 322.491,320.252 322.63,320.387C322.91,320.66 323.306,320.933 323.61,321.362C323.693,321.455 323.755,321.578 323.814,321.7L323.902,321.88L323.913,321.903L323.934,321.967L323.937,321.976L323.945,322.014L323.963,322.09C324.007,322.294 324.072,322.465 324.06,322.773C324.08,323.335 323.872,323.738 323.68,324.116C323.465,324.468 323.234,324.771 323.03,325.049C322.925,325.189 322.826,325.325 322.742,325.458L322.611,325.656L322.508,325.854C322.334,326.147 322.258,326.389 322.185,326.633C322.065,327.135 322.198,327.617 322.278,328.021C322.364,328.423 322.415,328.749 322.429,328.972C322.449,329.192 322.459,329.309 322.459,329.309C322.459,329.309 322.428,329.195 322.366,328.983C322.314,328.769 322.195,328.471 322.052,328.086C321.916,327.711 321.672,327.214 321.737,326.567C321.755,326.409 321.795,326.246 321.829,326.078C321.864,325.905 321.932,325.78 321.984,325.622C322.016,325.538 322.029,325.491 322.079,325.375L322.2,325.142C322.281,324.982 322.369,324.828 322.461,324.675C322.821,324.077 323.236,323.403 323.178,322.846C323.204,322.743 323.128,322.525 323.064,322.328L323.041,322.254L323.03,322.217L323.027,322.208L323.042,322.254L323.034,322.242L322.973,322.147L322.837,321.956C322.627,321.706 322.301,321.475 321.93,321.161C321.749,320.994 321.561,320.832 321.37,320.543C321.261,320.396 321.232,320.307 321.182,320.203L321.146,320.126L321.129,320.089L321.12,320.07L321.115,320.059C321.069,319.938 321.101,320.02 321.09,319.988L321.039,319.781C320.893,319.225 320.983,318.594 321.204,318.1C321.643,317.105 322.336,316.421 322.678,315.691C323.041,315.033 322.963,314.277 322.502,313.63C322.057,312.973 321.365,312.382 320.728,311.728C320.41,311.393 320.1,311.035 319.856,310.62C319.742,310.409 319.63,310.197 319.552,309.938C319.452,309.658 319.46,309.555 319.409,309.266C319.312,308.418 319.401,307.607 319.547,306.887C319.715,306.167 319.965,305.531 320.275,305.026C320.553,304.502 320.914,304.118 321.188,303.802C321.465,303.492 321.742,303.317 321.902,303.166C322.073,303.024 322.163,302.949 322.163,302.949Z" style="fill:rgb(108,143,38);fill-rule:nonzero;"/>
            </g>
            <g transform="matrix(4.16667,0,0,4.16667,-1302.33,-1264.38)">
                <path d="M348.234,305.213C348.234,305.213 348.282,305.263 348.374,305.358C348.458,305.459 348.614,305.577 348.752,305.785C348.896,305.986 349.093,306.234 349.256,306.534C349.442,306.83 349.619,307.181 349.798,307.571C349.964,307.968 350.15,308.398 350.271,308.886C350.409,309.369 350.518,309.904 350.485,310.527L350.485,310.583L350.484,310.598L350.484,310.606L350.476,310.659L350.471,310.684L350.451,310.78L350.413,310.974C350.397,311.094 350.348,311.248 350.284,311.41C350.171,311.746 350.03,311.987 349.885,312.246C349.589,312.744 349.283,313.188 349.082,313.628C348.967,313.832 348.906,314.08 348.853,314.238C348.838,314.362 348.796,314.539 348.804,314.617C348.802,314.701 348.796,314.789 348.815,314.888C348.854,315.248 349.132,315.752 349.3,316.307C349.481,316.855 349.53,317.408 349.542,317.91C349.561,318.414 349.514,318.881 349.458,319.305C349.405,319.73 349.333,320.113 349.25,320.448C349.183,320.784 349.103,321.074 349.029,321.31C348.887,321.782 348.796,322.047 348.796,322.047C348.796,322.047 348.789,321.765 348.796,321.276C348.805,320.788 348.81,320.091 348.778,319.276C348.757,318.869 348.726,318.431 348.661,317.983C348.594,317.536 348.487,317.084 348.316,316.651C348.227,316.432 348.124,316.221 347.999,315.969C347.877,315.732 347.738,315.417 347.686,315.068C347.651,314.897 347.646,314.709 347.653,314.519C347.656,314.32 347.685,314.228 347.699,314.077C347.783,313.7 347.867,313.409 348.013,313.12C348.29,312.556 348.636,312.093 348.907,311.657C349.029,311.442 349.174,311.216 349.245,311.047L349.314,310.914L349.371,310.729L349.424,310.539L349.45,310.445L349.456,310.42L349.448,310.462L349.449,310.457L349.449,310.448L349.451,310.407C349.493,309.991 349.483,309.514 349.409,309.069C349.349,308.618 349.247,308.192 349.158,307.795C349.047,307.405 348.958,307.038 348.847,306.724C348.748,306.401 348.641,306.139 348.556,305.913C348.475,305.685 348.372,305.515 348.321,305.395C348.265,305.276 348.234,305.213 348.234,305.213Z" style="fill:rgb(108,143,38);fill-rule:nonzero;"/>
            </g>
        </g>
    </g>
</svg>
